<svg id="Layer_1" data-name="Layer 1" xmlns="http://www.w3.org/2000/svg" viewBox="0 0 25.16 25.16"><defs><style>.cls-1{fill:#00a551;}</style></defs><title>actualizar</title><path class="cls-1" d="M0,15.56a1.19,1.19,0,0,1,.37-.63A1,1,0,0,1,1,14.68H8.29a1.1,1.1,0,0,1,.77.26,1,1,0,0,1,.05,1.53L7.43,18.16l-.55.55a8.35,8.35,0,0,0,6.29,2.24,8.15,8.15,0,0,0,6.56-4,14,14,0,0,0,.76-1.65l.13-.31a.46.46,0,0,1,.45-.31h3.17a.51.51,0,0,1,.49.67,12.94,12.94,0,0,1-2,4.56,12.21,12.21,0,0,1-6.63,4.77,12.09,12.09,0,0,1-2.79.46l-.16,0H12l-.14,0c-.41,0-.82-.07-1.22-.13a12.41,12.41,0,0,1-6.14-2.82l-.57-.5-.22.23L1.79,23.79a1,1,0,0,1-1.66-.24A2.65,2.65,0,0,1,0,23.24Z"/><path class="cls-1" d="M18.3,6.45a8.59,8.59,0,0,0-1.27-1,8.09,8.09,0,0,0-4.79-1.25A8.21,8.21,0,0,0,6.63,6.68,6.84,6.84,0,0,0,5.09,8.9c-.17.41-.36.82-.53,1.24a.52.52,0,0,1-.52.35H.86a.53.53,0,0,1-.54-.7A12.77,12.77,0,0,1,4.8,2.67,11.81,11.81,0,0,1,9.87.27,12.79,12.79,0,0,1,13.57,0,12.65,12.65,0,0,1,21.2,3.43l.07.05.16-.19c.66-.65,1.31-1.31,2-2a1,1,0,0,1,1.72.46,1.26,1.26,0,0,1,0,.34q0,3.61,0,7.23a1,1,0,0,1-1.1,1.1H16.82a1,1,0,0,1-1.06-.81,1,1,0,0,1,.3-1L18,6.76Z"/></svg>