<?xml version="1.0" encoding="utf-8"?>
<!-- Generator: Adobe Illustrator 16.0.0, SVG Export Plug-In . SVG Version: 6.00 Build 0)  -->
<!DOCTYPE svg PUBLIC "-//W3C//DTD SVG 1.1//EN" "http://www.w3.org/Graphics/SVG/1.1/DTD/svg11.dtd">
<svg version="1.1" id="Layer_1" xmlns="http://www.w3.org/2000/svg" xmlns:xlink="http://www.w3.org/1999/xlink" x="0px" y="0px"
	 width="25.163px" height="25.164px" viewBox="0 0 25.163 25.164" enable-background="new 0 0 25.163 25.164" xml:space="preserve">
<g>
	<path fill="#FFFFFF" d="M0,15.561c0.065-0.244,0.176-0.46,0.372-0.627c0.184-0.155,0.39-0.245,0.631-0.25
		c0.047-0.001,0.094-0.002,0.141-0.002c2.384,0,4.767,0.001,7.149-0.002c0.29,0,0.55,0.062,0.771,0.256
		c0.473,0.415,0.499,1.081,0.052,1.534c-0.56,0.566-1.124,1.126-1.687,1.689c-0.182,0.181-0.363,0.362-0.55,0.547
		c0.436,0.409,0.901,0.762,1.406,1.063c1.505,0.897,3.134,1.319,4.882,1.175c2.847-0.235,5.045-1.577,6.555-4.001
		c0.318-0.51,0.514-1.097,0.764-1.649c0.046-0.101,0.085-0.206,0.131-0.307c0.086-0.193,0.229-0.306,0.447-0.306
		c1.057,0,2.113-0.004,3.17,0.001c0.355,0.002,0.578,0.319,0.494,0.666c-0.399,1.645-1.037,3.185-2.027,4.564
		c-1.673,2.33-3.857,3.96-6.627,4.771c-0.91,0.267-1.843,0.411-2.789,0.459c-0.055,0.003-0.109,0.015-0.164,0.022
		c-0.385,0-0.77,0-1.155,0c-0.046-0.007-0.092-0.016-0.138-0.021c-0.408-0.043-0.819-0.068-1.224-0.132
		c-2.308-0.367-4.354-1.313-6.142-2.817c-0.192-0.161-0.377-0.331-0.572-0.502c-0.077,0.08-0.147,0.154-0.221,0.227
		c-0.625,0.626-1.248,1.255-1.879,1.877c-0.516,0.51-1.318,0.393-1.664-0.239c-0.055-0.1-0.085-0.212-0.126-0.318
		C0,20.679,0,18.12,0,15.561z"/>
	<path fill="#FFFFFF" d="M18.303,6.449c-0.405-0.38-0.823-0.705-1.271-0.99c-1.461-0.93-3.064-1.323-4.785-1.253
		c-2.192,0.089-4.062,0.93-5.615,2.469C5.981,7.318,5.45,8.049,5.095,8.898c-0.173,0.414-0.357,0.823-0.53,1.237
		c-0.099,0.236-0.263,0.353-0.523,0.352c-1.062-0.004-2.122,0-3.184-0.002c-0.397-0.001-0.641-0.311-0.544-0.701
		c0.71-2.866,2.168-5.26,4.484-7.114C6.3,1.468,7.986,0.659,9.872,0.273c1.223-0.25,2.458-0.335,3.702-0.226
		c2.927,0.257,5.464,1.401,7.626,3.383c0.013,0.011,0.026,0.022,0.066,0.055c0.054-0.062,0.105-0.129,0.164-0.188
		c0.655-0.652,1.306-1.309,1.97-1.952c0.568-0.55,1.502-0.293,1.718,0.465c0.031,0.109,0.043,0.228,0.043,0.341
		c0.002,2.409,0.002,4.818,0.001,7.228c0,0.656-0.443,1.103-1.104,1.104c-1.42,0.003-2.841,0.001-4.261,0.001
		c-0.993,0-1.985,0.002-2.979-0.001c-0.531-0.001-0.953-0.322-1.063-0.81c-0.086-0.385,0.022-0.715,0.304-0.995
		c0.641-0.636,1.277-1.276,1.916-1.914C18.078,6.661,18.185,6.563,18.303,6.449z"/>
</g>
</svg>
