<svg id="Layer_1" data-name="Layer 1" xmlns="http://www.w3.org/2000/svg" viewBox="0 0 25.83 23.13"><defs><style>.cls-1{fill:#00a551;}</style></defs><title>calculadora-change</title><path class="cls-1" d="M18.26,23a3.09,3.09,0,0,1-.31-.85c0-.85,0-1.71,0-2.65h-.65c-3.36,0-6.71,0-10.07,0a3.2,3.2,0,0,1-3.11-4.19,7.52,7.52,0,0,1,.33-.77c.07,0,.12,0,.13,0A3.39,3.39,0,0,0,7.7,16c3.2,0,6.39,0,9.59,0h.64c0-.91,0-1.78,0-2.65,0-.26.1-.62.28-.72a.91.91,0,0,1,.75.16c2.08,1.44,4.14,2.91,6.21,4.37.16.11.3.24.45.36v.43c-.55.41-1.1.83-1.65,1.24L18.69,23Z"/><path class="cls-1" d="M7.65.25A3.09,3.09,0,0,1,8,1.1C8,2,8,2.81,8,3.76H18.74a3,3,0,0,1,2.83,1.7,3.16,3.16,0,0,1-.12,3.25c-.05,0-.11,0-.12,0A3.39,3.39,0,0,0,18.2,7.21c-3.2,0-6.39,0-9.59,0H8C8,8.14,8,9,8,9.88c0,.26-.1.63-.28.72a.91.91,0,0,1-.75-.16C4.84,9,2.78,7.53.71,6.07.56,6,.41,5.83.26,5.71V5.28L3,3.28l4.22-3Z"/></svg>