<?xml version="1.0" encoding="utf-8"?>
<!-- Generator: Adobe Illustrator 16.0.0, SVG Export Plug-In . SVG Version: 6.00 Build 0)  -->
<!DOCTYPE svg PUBLIC "-//W3C//DTD SVG 1.1//EN" "http://www.w3.org/Graphics/SVG/1.1/DTD/svg11.dtd">
<svg version="1.1" id="Layer_1" xmlns="http://www.w3.org/2000/svg" xmlns:xlink="http://www.w3.org/1999/xlink" x="0px" y="0px"
	 width="55.57px" height="60.077px" viewBox="0 0 55.57 60.077" enable-background="new 0 0 55.57 60.077" xml:space="preserve">
<g>
	<path fill="#FFFFFF" d="M52.222,31.15V19.069c0-2.897-2.356-5.252-5.252-5.252h-3.558l-3.641-6.547
		c-0.554-0.999-1.61-1.62-2.755-1.62c-0.533,0-1.064,0.138-1.531,0.397l-13.97,7.769H5.912c-2.897,0-5.253,2.355-5.253,5.252v36.067
		c0,2.897,2.639,4.255,5.536,4.255H46.97c2.896,0,5.252-1.357,5.252-4.255V44.173l2.627-0.125V31.15H52.222z"/>
	<circle fill="#FFFFFF" cx="43.336" cy="37.933" r="2.319"/>
	<path fill="#EE4E23" d="M37.038,7.022c0.493-0.276,1.155-0.082,1.429,0.409l5.797,10.426h-26.71L37.038,7.022z"/>
	<g>
		<g>
			<path fill="#4A4342" stroke="#4A4342" stroke-width="1.3805" stroke-miterlimit="10" d="M54.849,30.151h-2.627V18.07
				c0-2.897-2.356-5.252-5.252-5.252h-3.558l-3.641-6.547c-0.554-0.999-1.61-1.62-2.755-1.62c-0.533,0-1.064,0.138-1.531,0.397
				l-13.97,7.769H5.912c-2.897,0-5.253,2.355-5.253,5.252v36.067c0,2.897,2.355,5.254,5.253,5.254H46.97
				c2.896,0,5.252-2.356,5.252-5.254V43.545h2.627V30.151L54.849,30.151z M46.97,14.918c1.617,0,2.939,1.229,3.117,2.802h-3.949
				l-1.557-2.802H46.97z M36.508,6.884c0.493-0.276,1.155-0.082,1.429,0.409l5.797,10.426h-26.71L36.508,6.884z M50.12,54.137
				c0,1.739-1.414,3.152-3.15,3.152H5.912c-1.739,0-3.153-1.413-3.153-3.152V18.07c0-1.737,1.414-3.152,3.153-3.152h11.826
				L12.7,17.72H6.566c-0.579,0-1.049,0.471-1.049,1.051c0,0.579,0.47,1.051,1.049,1.051h2.354h38.386h2.813v10.33h-7.683
				c-3.567,0-6.471,2.904-6.471,6.472v0.451c0,3.568,2.903,6.472,6.471,6.472h7.683V54.137L50.12,54.137z M52.746,41.444h-0.524
				h-9.784c-2.41,0-4.37-1.961-4.37-4.371v-0.451c0-2.41,1.96-4.37,4.37-4.37h9.784h0.524V41.444z M45.657,36.935
				c0,1.282-1.039,2.318-2.321,2.318s-2.319-1.036-2.319-2.318s1.037-2.32,2.319-2.32S45.657,35.653,45.657,36.935z"/>
		</g>
	</g>
</g>
</svg>
