<?xml version="1.0" encoding="utf-8"?>
<!-- Generator: Adobe Illustrator 16.0.0, SVG Export Plug-In . SVG Version: 6.00 Build 0)  -->
<!DOCTYPE svg PUBLIC "-//W3C//DTD SVG 1.1//EN" "http://www.w3.org/Graphics/SVG/1.1/DTD/svg11.dtd">
<svg version="1.1" id="Layer_1" xmlns="http://www.w3.org/2000/svg" xmlns:xlink="http://www.w3.org/1999/xlink" x="0px" y="0px"
	 width="49.143px" height="60.616px" viewBox="0 0 49.143 60.616" enable-background="new 0 0 49.143 60.616" xml:space="preserve">
<g>
	<g>
		<g>
			<g>
				<defs>
					<rect id="SVGID_52_" width="40.815" height="55.724"/>
				</defs>
				<clipPath id="SVGID_2_">
					<use xlink:href="#SVGID_52_"  overflow="visible"/>
				</clipPath>
				<g clip-path="url(#SVGID_2_)">
					<g>
						<polygon fill="#FFFFFF" points="29.176,1.446 24.389,1.446 24.389,-9.808 10.936,-9.808 10.936,-4.018 -7.723,-4.018 
							-7.723,-9.808 -21.176,-9.808 -21.176,46.029 1.447,46.029 1.447,54.276 39.369,54.276 39.369,11.64 						"/>
						<polygon fill="#5BC0D4" points="29.176,11.64 29.176,1.446 39.369,11.64 						"/>
						<path fill="#4A4342" d="M-21.176-11.254c-0.8,0-1.446,0.649-1.446,1.446v55.837c0,0.8,0.646,1.45,1.446,1.45H0v6.797
							c0,0.797,0.648,1.447,1.447,1.447H39.37c0.794,0,1.445-0.65,1.445-1.447V11.64c0-0.382-0.152-0.75-0.422-1.023L30.202,0.426
							C29.925,0.154,29.559,0,29.176,0h-3.342v-9.808c0-0.797-0.647-1.446-1.445-1.446H7.755V-11.6c0-2.917-2.374-5.291-5.293-5.291
							H0.753c-2.919,0-5.295,2.374-5.295,5.291v0.346H-21.176z M-19.729,44.582V-8.356h10.56v4.339c0,0.798,0.648,1.445,1.446,1.445
							h18.659c0.799,0,1.449-0.647,1.449-1.445v-4.339h10.559V0H1.447C0.648,0,0,0.649,0,1.446v43.136H-19.729z M2.893,2.892H27.73
							v8.748c0,0.798,0.645,1.447,1.446,1.447h8.745v39.741H2.893V2.892z"/>
						<path fill="#4A4342" d="M8.078,19.771h18.137c0.802,0,1.447-0.646,1.447-1.446c0-0.801-0.645-1.447-1.447-1.447H8.078
							c-0.8,0-1.45,0.646-1.45,1.447C6.628,19.125,7.278,19.771,8.078,19.771"/>
						<path fill="#4A4342" d="M32.738,24.114H8.078c-0.8,0-1.45,0.647-1.45,1.447c0,0.797,0.65,1.441,1.45,1.441h24.66
							c0.8,0,1.448-0.645,1.448-1.441C34.186,24.762,33.538,24.114,32.738,24.114"/>
						<path fill="#4A4342" d="M32.738,31.344H8.078c-0.8,0-1.45,0.648-1.45,1.449c0,0.798,0.65,1.447,1.45,1.447h24.66
							c0.8,0,1.448-0.649,1.448-1.447C34.186,31.992,33.538,31.344,32.738,31.344"/>
						<path fill="#4A4342" d="M32.738,38.58H8.078c-0.8,0-1.45,0.649-1.45,1.448c0,0.797,0.65,1.443,1.45,1.443h24.66
							c0.8,0,1.448-0.646,1.448-1.443C34.186,39.229,33.538,38.58,32.738,38.58"/>
						<path fill="#4A4342" d="M32.738,16.878h-2.413c-0.799,0-1.445,0.646-1.445,1.447c0,0.8,0.646,1.446,1.445,1.446h2.413
							c0.8,0,1.448-0.646,1.448-1.446C34.186,17.524,33.538,16.878,32.738,16.878"/>
					</g>
				</g>
			</g>
		</g>
		<polygon fill="#EE4E23" points="30.877,4.593 36.13,9.845 30.877,9.845 		"/>
	</g>
	<g>
		<circle fill="#24B34B" cx="36.132" cy="47.603" r="13.014"/>
		<path fill="#FFFFFF" d="M43.256,41.29c-0.492-0.344-1.166-0.223-1.51,0.271l-6.069,8.721l-4.281-3.518
			c-0.463-0.38-1.147-0.313-1.527,0.15c-0.379,0.464-0.312,1.146,0.151,1.525l5.19,4.263c0.193,0.157,0.438,0.244,0.687,0.244
			c0.049,0,0.099-0.003,0.149-0.008c0.298-0.044,0.569-0.206,0.743-0.455l6.737-9.685C43.87,42.308,43.749,41.633,43.256,41.29z"/>
	</g>
</g>
</svg>
