<?xml version="1.0" encoding="utf-8"?>
<!-- Generator: Adobe Illustrator 16.0.0, SVG Export Plug-In . SVG Version: 6.00 Build 0)  -->
<!DOCTYPE svg PUBLIC "-//W3C//DTD SVG 1.1//EN" "http://www.w3.org/Graphics/SVG/1.1/DTD/svg11.dtd">
<svg version="1.1" id="Layer_1" xmlns="http://www.w3.org/2000/svg" xmlns:xlink="http://www.w3.org/1999/xlink" x="0px" y="0px"
	 width="36.724px" height="60.077px" viewBox="0 0 36.724 60.077" enable-background="new 0 0 36.724 60.077" xml:space="preserve">
<g>
	<g>
		<g>
			<g>
				<defs>
					<rect id="SVGID_52_" x="40.634" y="-0.539" width="40.815" height="55.724"/>
				</defs>
				<clipPath id="SVGID_2_">
					<use xlink:href="#SVGID_52_"  overflow="visible"/>
				</clipPath>
				<g clip-path="url(#SVGID_2_)">
					<g>
						<polygon fill="#FFFFFF" points="69.811,0.907 65.023,0.907 65.023,-10.347 51.57,-10.347 51.57,-4.557 32.911,-4.557 
							32.911,-10.347 19.458,-10.347 19.458,45.49 42.081,45.49 42.081,53.737 80.003,53.737 80.003,11.101 						"/>
						<path fill="#4A4342" d="M19.458-11.793c-0.8,0-1.446,0.649-1.446,1.446V45.49c0,0.8,0.646,1.45,1.446,1.45h21.176v6.797
							c0,0.797,0.648,1.447,1.447,1.447h37.923c0.794,0,1.445-0.65,1.445-1.447V11.101c0-0.382-0.152-0.75-0.422-1.023L70.836-0.113
							c-0.276-0.271-0.643-0.426-1.025-0.426h-3.342v-9.808c0-0.797-0.647-1.446-1.445-1.446H48.389v-0.346
							c0-2.917-2.374-5.291-5.293-5.291h-1.709c-2.919,0-5.295,2.374-5.295,5.291v0.346H19.458z M20.905,44.043V-8.896h10.56v4.339
							c0,0.798,0.648,1.445,1.446,1.445H51.57c0.799,0,1.449-0.647,1.449-1.445v-4.339h10.559v8.356H42.081
							c-0.799,0-1.447,0.649-1.447,1.446v43.136H20.905z M43.527,2.353h24.838v8.748c0,0.798,0.645,1.447,1.446,1.447h8.745v39.741
							H43.527V2.353z"/>
					</g>
				</g>
			</g>
		</g>
	</g>
</g>
<path fill="#EE4E23" d="M18.362,13.751c-9.937,0-17.992,8.057-17.992,17.992c0,14.408,16.264,27.75,16.264,27.75
	c0.951,0.779,2.506,0.779,3.457,0c0,0,16.264-13.342,16.264-27.75C36.354,21.808,28.298,13.751,18.362,13.751z M18.362,40.796
	c-4.991,0-9.052-4.061-9.052-9.053c0-4.99,4.061-9.051,9.052-9.051s9.052,4.061,9.052,9.051
	C27.414,36.735,23.353,40.796,18.362,40.796z"/>
</svg>
