<?xml version="1.0" encoding="utf-8"?>
<!-- Generator: Adobe Illustrator 16.0.0, SVG Export Plug-In . SVG Version: 6.00 Build 0)  -->
<!DOCTYPE svg PUBLIC "-//W3C//DTD SVG 1.1//EN" "http://www.w3.org/Graphics/SVG/1.1/DTD/svg11.dtd">
<svg version="1.1" id="Layer_1" xmlns="http://www.w3.org/2000/svg" xmlns:xlink="http://www.w3.org/1999/xlink" x="0px" y="0px"
	 width="50.998px" height="106.997px" viewBox="0 0 50.998 106.997" enable-background="new 0 0 50.998 106.997"
	 xml:space="preserve">
<g>
	<g>
		<linearGradient id="SVGID_1_" gradientUnits="userSpaceOnUse" x1="3.29" y1="65.7188" x2="3.29" y2="97.6187">
			<stop  offset="0" style="stop-color:#00ADEE"/>
			<stop  offset="0.0347" style="stop-color:#00ABEB"/>
			<stop  offset="0.4" style="stop-color:#0094CC"/>
			<stop  offset="0.7116" style="stop-color:#0087BA"/>
			<stop  offset="0.931" style="stop-color:#0082B3"/>
		</linearGradient>
		<path fill="url(#SVGID_1_)" d="M2.414,80.787h3.311v2.203H2.414v4.514H6.58v2.203H0V74.289h6.58v2.203H2.414V80.787z"/>
		<linearGradient id="SVGID_2_" gradientUnits="userSpaceOnUse" x1="12.6895" y1="65.7188" x2="12.6895" y2="97.6187">
			<stop  offset="0" style="stop-color:#00ADEE"/>
			<stop  offset="0.0347" style="stop-color:#00ABEB"/>
			<stop  offset="0.4" style="stop-color:#0094CC"/>
			<stop  offset="0.7116" style="stop-color:#0087BA"/>
			<stop  offset="0.931" style="stop-color:#0082B3"/>
		</linearGradient>
		<path fill="url(#SVGID_2_)" d="M11.911,81.14h3.114v2.202h-3.114v6.365H9.498V74.289h6.383v2.203h-3.97V81.14z"/>
		<linearGradient id="SVGID_3_" gradientUnits="userSpaceOnUse" x1="19.6758" y1="65.7188" x2="19.6758" y2="97.6187">
			<stop  offset="0" style="stop-color:#00ADEE"/>
			<stop  offset="0.0347" style="stop-color:#00ABEB"/>
			<stop  offset="0.4" style="stop-color:#0094CC"/>
			<stop  offset="0.7116" style="stop-color:#0087BA"/>
			<stop  offset="0.931" style="stop-color:#0082B3"/>
		</linearGradient>
		<path fill="url(#SVGID_3_)" d="M18.469,74.289h2.414v15.418h-2.414V74.289z"/>
		<linearGradient id="SVGID_4_" gradientUnits="userSpaceOnUse" x1="27.4629" y1="65.7188" x2="27.4629" y2="97.6185">
			<stop  offset="0" style="stop-color:#00ADEE"/>
			<stop  offset="0.0347" style="stop-color:#00ABEB"/>
			<stop  offset="0.4" style="stop-color:#0094CC"/>
			<stop  offset="0.7116" style="stop-color:#0087BA"/>
			<stop  offset="0.931" style="stop-color:#0082B3"/>
		</linearGradient>
		<path fill="url(#SVGID_4_)" d="M31.06,83.959v2.047c0,2.469-1.228,3.878-3.597,3.878s-3.598-1.409-3.598-3.878v-8.017
			c0-2.467,1.229-3.877,3.598-3.877s3.597,1.41,3.597,3.877v1.498h-2.28v-1.652c0-1.102-0.482-1.52-1.251-1.52
			c-0.767,0-1.25,0.418-1.25,1.52v8.326c0,1.101,0.483,1.497,1.25,1.497c0.769,0,1.251-0.396,1.251-1.497v-2.202H31.06z"/>
		<linearGradient id="SVGID_5_" gradientUnits="userSpaceOnUse" x1="37.542" y1="65.7188" x2="37.542" y2="97.6187">
			<stop  offset="0" style="stop-color:#00ADEE"/>
			<stop  offset="0.0347" style="stop-color:#00ABEB"/>
			<stop  offset="0.4" style="stop-color:#0094CC"/>
			<stop  offset="0.7116" style="stop-color:#0087BA"/>
			<stop  offset="0.931" style="stop-color:#0082B3"/>
		</linearGradient>
		<path fill="url(#SVGID_5_)" d="M41.764,89.707h-2.435l-0.416-2.798h-2.962l-0.416,2.798H33.32l2.456-15.418h3.531L41.764,89.707z
			 M36.259,84.817h2.324l-1.162-7.797L36.259,84.817z"/>
		<linearGradient id="SVGID_7_" gradientUnits="userSpaceOnUse" x1="47.4668" y1="65.7188" x2="47.4668" y2="97.6187">
			<stop  offset="0" style="stop-color:#00ADEE"/>
			<stop  offset="0.0347" style="stop-color:#00ABEB"/>
			<stop  offset="0.4" style="stop-color:#0094CC"/>
			<stop  offset="0.7116" style="stop-color:#0087BA"/>
			<stop  offset="0.931" style="stop-color:#0082B3"/>
		</linearGradient>
		<path fill="url(#SVGID_7_)" d="M50.998,74.289v2.159l-4.584,11.056h4.584v2.203h-7.063v-2.158l4.584-11.057h-4.364v-2.203H50.998z
			"/>
	</g>
	<linearGradient id="SVGID_8_" gradientUnits="userSpaceOnUse" x1="5.0264" y1="22.8877" x2="48.6367" y2="22.8877">
		<stop  offset="0" style="stop-color:#00ADEE"/>
		<stop  offset="0.0347" style="stop-color:#00ABEB"/>
		<stop  offset="0.4" style="stop-color:#0094CC"/>
		<stop  offset="0.7116" style="stop-color:#0087BA"/>
		<stop  offset="0.931" style="stop-color:#0082B3"/>
	</linearGradient>
	<path fill="url(#SVGID_8_)" d="M20.419,45.775c-1.533-0.448-2.573-1.477-3.511-2.734c-3.58-4.803-7.224-9.559-10.835-14.338
		c-1.661-2.198-1.312-4.974,0.807-6.563c2.03-1.523,4.805-1.059,6.452,1.102c2.299,3.015,4.582,6.04,6.873,9.061
		c0.202,0.267,0.414,0.525,0.691,0.875c0.734-1.17,1.429-2.269,2.115-3.371c5.665-9.102,11.34-18.196,16.981-27.313
		C40.813,1.169,41.95,0.395,43.407,0c0.475,0,0.949,0,1.425,0c0.932,0.57,2.047,0.972,2.759,1.744
		c1.448,1.572,1.345,3.625-0.012,5.803c-7.273,11.679-14.563,23.349-21.807,35.046c-0.925,1.493-1.971,2.722-3.727,3.183
		C21.504,45.775,20.961,45.775,20.419,45.775z"/>
	<linearGradient id="SVGID_9_" gradientUnits="userSpaceOnUse" x1="11.8213" y1="106.0879" x2="39.1777" y2="106.0879">
		<stop  offset="0" style="stop-color:#00ADEE"/>
		<stop  offset="0.0347" style="stop-color:#00ABEB"/>
		<stop  offset="0.4" style="stop-color:#0094CC"/>
		<stop  offset="0.7116" style="stop-color:#0087BA"/>
		<stop  offset="0.931" style="stop-color:#0082B3"/>
	</linearGradient>
	
		<line fill="none" stroke="url(#SVGID_9_)" stroke-width="2" stroke-linecap="round" stroke-miterlimit="10" x1="12.821" y1="106.088" x2="38.178" y2="106.088"/>
</g>
</svg>
