<?xml version="1.0" encoding="utf-8"?>
<!-- Generator: Adobe Illustrator 16.0.0, SVG Export Plug-In . SVG Version: 6.00 Build 0)  -->
<!DOCTYPE svg PUBLIC "-//W3C//DTD SVG 1.1//EN" "http://www.w3.org/Graphics/SVG/1.1/DTD/svg11.dtd">
<svg version="1.1" id="Layer_1" xmlns="http://www.w3.org/2000/svg" xmlns:xlink="http://www.w3.org/1999/xlink" x="0px" y="0px"
	 width="49.144px" height="60.615px" viewBox="0 0 49.144 60.615" enable-background="new 0 0 49.144 60.615" xml:space="preserve">
<g>
	<g>
		<g>
			<g>
				<defs>
					<rect id="SVGID_52_" x="0" width="40.814" height="55.723"/>
				</defs>
				<clipPath id="SVGID_2_">
					<use xlink:href="#SVGID_52_"  overflow="visible"/>
				</clipPath>
				<g clip-path="url(#SVGID_2_)">
					<g>
						<polygon fill="#FFFFFF" points="29.176,1.445 24.389,1.445 24.389,-9.809 10.936,-9.809 10.936,-4.018 -7.723,-4.018 
							-7.723,-9.809 -21.175,-9.809 -21.175,46.029 1.447,46.029 1.447,54.275 39.37,54.275 39.37,11.639 						"/>
						<polygon fill="#5BC0D4" points="29.176,11.639 29.176,1.445 39.37,11.639 						"/>
						<path fill="#4A4342" d="M-21.175-11.254c-0.8,0-1.446,0.648-1.446,1.445v55.838c0,0.799,0.646,1.449,1.446,1.449H0v6.797
							c0,0.797,0.647,1.447,1.446,1.447h37.924c0.794,0,1.444-0.65,1.444-1.447V11.639c0-0.381-0.152-0.75-0.422-1.023L30.202,0.426
							C29.925,0.154,29.559,0,29.176,0h-3.342v-9.809c0-0.797-0.647-1.445-1.445-1.445H7.755V-11.6c0-2.918-2.374-5.291-5.293-5.291
							H0.753c-2.919,0-5.296,2.373-5.296,5.291v0.346H-21.175z M-19.729,44.582V-8.357h10.561v4.34c0,0.797,0.648,1.445,1.445,1.445
							h18.659c0.799,0,1.449-0.648,1.449-1.445v-4.34h10.559V0H1.447C0.648,0,0,0.648,0,1.445v43.137H-19.729z M2.893,2.891h24.838
							v8.748c0,0.799,0.645,1.447,1.445,1.447h8.745v39.742H2.893V2.891z"/>
						<path fill="#4A4342" d="M8.079,19.771h18.137c0.802,0,1.446-0.646,1.446-1.447s-0.645-1.447-1.446-1.447H8.079
							c-0.8,0-1.45,0.646-1.45,1.447S7.279,19.771,8.079,19.771"/>
						<path fill="#4A4342" d="M32.738,24.113H8.079c-0.8,0-1.45,0.648-1.45,1.447c0,0.797,0.65,1.441,1.45,1.441h24.659
							c0.8,0,1.448-0.645,1.448-1.441C34.186,24.762,33.538,24.113,32.738,24.113"/>
						<path fill="#4A4342" d="M32.738,31.344H8.079c-0.8,0-1.45,0.648-1.45,1.449c0,0.797,0.65,1.447,1.45,1.447h24.659
							c0.8,0,1.448-0.65,1.448-1.447C34.186,31.992,33.538,31.344,32.738,31.344"/>
						<path fill="#4A4342" d="M32.738,38.58H8.079c-0.8,0-1.45,0.648-1.45,1.447c0,0.797,0.65,1.443,1.45,1.443h24.659
							c0.8,0,1.448-0.646,1.448-1.443C34.186,39.229,33.538,38.58,32.738,38.58"/>
						<path fill="#4A4342" d="M32.738,16.877h-2.412c-0.799,0-1.445,0.646-1.445,1.447s0.646,1.447,1.445,1.447h2.412
							c0.8,0,1.448-0.646,1.448-1.447S33.538,16.877,32.738,16.877"/>
					</g>
				</g>
			</g>
		</g>
		<polygon fill="#EE4E23" points="30.877,4.592 36.13,9.844 30.877,9.844 		"/>
	</g>
	<g>
		<path fill="#24B34B" d="M36.132,34.588c7.187,0,13.011,5.828,13.011,13.014c0,7.188-5.824,13.014-13.011,13.014
			c-7.188,0-13.016-5.826-13.016-13.014C23.117,40.416,28.944,34.588,36.132,34.588z"/>
		<path fill="#FFFFFF" d="M43.256,41.289c-0.492-0.344-1.166-0.223-1.51,0.271l-6.068,8.721l-4.281-3.518
			c-0.463-0.381-1.146-0.313-1.526,0.15s-0.312,1.145,0.151,1.525l5.19,4.262c0.193,0.158,0.438,0.244,0.687,0.244
			c0.049,0,0.099-0.002,0.149-0.008c0.298-0.043,0.568-0.205,0.742-0.455l6.737-9.684C43.87,42.307,43.749,41.633,43.256,41.289z"/>
	</g>
</g>
</svg>
