<?xml version="1.0" encoding="utf-8"?>
<!-- Generator: Adobe Illustrator 16.0.0, SVG Export Plug-In . SVG Version: 6.00 Build 0)  -->
<!DOCTYPE svg PUBLIC "-//W3C//DTD SVG 1.1//EN" "http://www.w3.org/Graphics/SVG/1.1/DTD/svg11.dtd">
<svg version="1.1" id="Layer_1" xmlns="http://www.w3.org/2000/svg" xmlns:xlink="http://www.w3.org/1999/xlink" x="0px" y="0px"
	 width="68.638px" height="78.567px" viewBox="0 0 68.638 78.567" enable-background="new 0 0 68.638 78.567" xml:space="preserve">
<g>
	<g>
		<g>
			<polygon fill="#FFFFFF" points="56.045,19.841 50.866,19.841 50.866,7.664 36.31,7.664 36.31,13.929 16.121,13.929 16.121,7.664 
				1.564,7.664 1.564,68.078 26.042,68.078 26.042,77.002 67.073,77.002 67.073,30.869 			"/>
			<path fill="#5BC0D4" d="M31.302,7.664V5.725c0-2.3-1.861-4.164-4.161-4.164h-1.853c-2.296,0-4.16,1.864-4.16,4.164v1.939h-5.008
				v6.262H36.31V7.664H31.302z"/>
			<polygon fill="#5BC0D4" points="56.045,30.869 56.045,19.841 67.073,30.869 			"/>
			<path fill="#4A4342" d="M1.564,6.099C0.7,6.099,0,6.802,0,7.664v60.414c0,0.866,0.7,1.569,1.564,1.569h22.912v7.354
				c0,0.862,0.701,1.565,1.566,1.565h41.032c0.86,0,1.563-0.703,1.563-1.565V30.869c0-0.413-0.164-0.812-0.457-1.107L57.155,18.736
				c-0.299-0.294-0.696-0.461-1.109-0.461h-3.616V7.664c0-0.862-0.7-1.565-1.563-1.565H32.868V5.725C32.868,2.568,30.299,0,27.141,0
				h-1.85c-3.158,0-5.729,2.568-5.729,5.725v0.374H1.564z M3.13,66.513V9.234h11.426v4.694c0,0.863,0.702,1.563,1.564,1.563H36.31
				c0.865,0,1.568-0.7,1.568-1.563V9.234h11.424v9.041H26.042c-0.865,0-1.566,0.702-1.566,1.565v46.672H3.13z M27.607,21.404h26.874
				v9.465c0,0.863,0.698,1.566,1.564,1.566h9.461v42.999h-37.9V21.404z"/>
			<path fill="#4A4342" d="M33.217,39.668h19.625c0.867,0,1.566-0.699,1.566-1.565s-0.699-1.565-1.566-1.565H33.217
				c-0.865,0-1.568,0.699-1.568,1.565S32.352,39.668,33.217,39.668"/>
			<path fill="#4A4342" d="M59.899,44.367H33.217c-0.865,0-1.568,0.7-1.568,1.565c0,0.862,0.703,1.56,1.568,1.56h26.682
				c0.865,0,1.566-0.697,1.566-1.56C61.465,45.067,60.764,44.367,59.899,44.367"/>
			<path fill="#4A4342" d="M59.899,52.188H33.217c-0.865,0-1.568,0.702-1.568,1.568c0,0.863,0.703,1.566,1.568,1.566h26.682
				c0.865,0,1.566-0.703,1.566-1.566C61.465,52.891,60.764,52.188,59.899,52.188"/>
			<path fill="#4A4342" d="M59.899,60.019H33.217c-0.865,0-1.568,0.703-1.568,1.566s0.703,1.563,1.568,1.563h26.682
				c0.865,0,1.566-0.699,1.566-1.563S60.764,60.019,59.899,60.019"/>
			<path fill="#4A4342" d="M59.899,36.537h-2.61c-0.864,0-1.563,0.699-1.563,1.565s0.699,1.565,1.563,1.565h2.61
				c0.865,0,1.566-0.699,1.566-1.565S60.764,36.537,59.899,36.537"/>
		</g>
	</g>
	<path fill="#00A5E7" d="M25.045,9.155c0.861,0,1.563-0.703,1.563-1.569c0-0.863-0.702-1.565-1.563-1.565h-2.35V5.646
		c0-1.431,1.164-2.599,2.597-2.599h1.85c1.43,0,2.595,1.168,2.595,2.599v1.939c0,0.866,0.702,1.569,1.566,1.569h3.439v3.126H17.688
		V9.155H25.045z"/>
	<polygon fill="#00A5E7" points="57.342,24.1 63.027,29.781 57.342,29.781 	"/>
</g>
</svg>
