<?xml version="1.0" encoding="utf-8"?>
<!-- Generator: Adobe Illustrator 16.0.0, SVG Export Plug-In . SVG Version: 6.00 Build 0)  -->
<!DOCTYPE svg PUBLIC "-//W3C//DTD SVG 1.1//EN" "http://www.w3.org/Graphics/SVG/1.1/DTD/svg11.dtd">
<svg version="1.1" id="Layer_1" xmlns="http://www.w3.org/2000/svg" xmlns:xlink="http://www.w3.org/1999/xlink" x="0px" y="0px"
	 width="55.57px" height="56.119px" viewBox="0 0 55.57 56.119" enable-background="new 0 0 55.57 56.119" xml:space="preserve">
<g>
	<g>
		<path fill="#FFFFFF" d="M52.253,26.723V14.863c0-2.846-2.356-5.156-5.252-5.156h-3.558l-3.641-6.428
			c-0.554-0.98-1.61-1.59-2.755-1.59c-0.533,0-1.064,0.135-1.531,0.391l-13.97,7.625H5.943c-2.897,0-5.253,2.313-5.253,5.156v35.41
			c0,2.844,2.355,5.158,5.253,5.158h41.058c2.896,0,5.252-2.314,5.252-5.158V39.873h2.627v-13.15H52.253z"/>
		<ellipse fill="#FFFFFF" cx="43.367" cy="33.382" rx="2.319" ry="2.276"/>
	</g>
	<path fill="#EE4E23" d="M37.069,3.035c0.493-0.27,1.155-0.08,1.429,0.402l5.797,10.236h-26.71L37.069,3.035z"/>
</g>
<g>
	<g>
		<path fill="#4A4342" stroke="#4A4342" stroke-width="1.3805" stroke-miterlimit="10" d="M54.88,26.189h-2.627v-12.08
			c0-2.898-2.356-5.252-5.252-5.252h-3.558l-3.641-6.547c-0.554-1-1.61-1.621-2.755-1.621c-0.533,0-1.064,0.139-1.531,0.398
			l-13.97,7.768H5.943c-2.897,0-5.253,2.355-5.253,5.252v36.068c0,2.896,2.355,5.254,5.253,5.254h41.058
			c2.896,0,5.252-2.357,5.252-5.254V39.584h2.627V26.189L54.88,26.189z M47.001,10.957c1.617,0,2.939,1.229,3.117,2.801h-3.949
			l-1.557-2.801H47.001z M36.539,2.922c0.493-0.275,1.155-0.082,1.429,0.41l5.797,10.426h-26.71L36.539,2.922z M50.151,50.176
			c0,1.738-1.414,3.152-3.15,3.152H5.943c-1.739,0-3.153-1.414-3.153-3.152V14.109c0-1.738,1.414-3.152,3.153-3.152H17.77
			l-5.038,2.801H6.598c-0.579,0-1.049,0.471-1.049,1.051s0.47,1.051,1.049,1.051h2.354h38.386h2.813v10.33h-7.683
			c-3.567,0-6.471,2.904-6.471,6.473v0.451c0,3.568,2.903,6.471,6.471,6.471h7.683V50.176L50.151,50.176z M52.777,37.482h-0.524
			h-9.784c-2.41,0-4.37-1.961-4.37-4.371V32.66c0-2.41,1.96-4.369,4.37-4.369h9.784h0.524V37.482z M45.688,32.973
			c0,1.283-1.039,2.318-2.321,2.318s-2.319-1.035-2.319-2.318c0-1.281,1.037-2.32,2.319-2.32S45.688,31.691,45.688,32.973z"/>
	</g>
</g>
</svg>
