<?xml version="1.0" encoding="utf-8"?>
<!-- Generator: Adobe Illustrator 16.0.0, SVG Export Plug-In . SVG Version: 6.00 Build 0)  -->
<!DOCTYPE svg PUBLIC "-//W3C//DTD SVG 1.1//EN" "http://www.w3.org/Graphics/SVG/1.1/DTD/svg11.dtd">
<svg version="1.1" id="Layer_1" xmlns="http://www.w3.org/2000/svg" xmlns:xlink="http://www.w3.org/1999/xlink" x="0px" y="0px"
	 width="50.938px" height="32.288px" viewBox="0 0 50.938 32.288" enable-background="new 0 0 50.938 32.288" xml:space="preserve">
<g>
	<g>
		<polygon fill="#FFFFFF" points="32.494,28.872 19.03,28.858 16.877,14.58 11.552,14.577 14.885,32.265 36.025,32.288 
			39.389,14.602 34.673,14.599 		"/>
		<polygon fill="#FFFFFF" points="42.139,14.375 50.938,14.382 25.494,0 0,14.338 9.4,14.347 25.793,5.437 		"/>
	</g>
	<path fill="#FFFFFF" d="M30.641,21.066c0.018,0.969-0.313,1.738-0.998,2.31c-0.693,0.575-1.731,0.931-3.123,1.071l0.021,1.114
		l-1.933,0.026L24.594,24.5c-0.76-0.055-1.537-0.279-2.334-0.68c-0.795-0.388-1.452-0.86-1.973-1.413l2.06-1.36
		c0.39,0.457,0.862,0.811,1.372,1.071c0.521,0.245,1.049,0.379,1.594,0.363c0.58,0.003,1.033-0.093,1.35-0.301
		c0.315-0.199,0.481-0.463,0.465-0.782c-0.016-0.348-0.18-0.668-0.531-0.972c-0.336-0.32-1.02-0.779-2.045-1.388
		c-0.481-0.289-0.9-0.54-1.252-0.763c-0.344-0.217-0.623-0.394-0.816-0.543c-0.64-0.451-1.117-0.908-1.404-1.345
		c-0.297-0.446-0.455-0.934-0.475-1.478c-0.014-0.804,0.296-1.483,0.93-2.036c0.626-0.55,1.555-0.95,2.768-1.189l-0.023-0.814
		l1.936-0.012l0.025,0.739c1.16,0.121,2.109,0.459,2.832,0.978c0.713,0.55,1.18,1.242,1.361,2.096l-2.74,0.584
		c-0.059-0.237-0.142-0.464-0.234-0.656c-0.105-0.205-0.225-0.378-0.376-0.524c-0.193-0.177-0.403-0.311-0.653-0.404
		c-0.259-0.062-0.545-0.115-0.887-0.115c-0.479,0.013-0.883,0.112-1.176,0.341c-0.285,0.23-0.424,0.541-0.424,0.925
		c0.01,0.258,0.106,0.47,0.291,0.677c0.193,0.212,0.523,0.448,0.977,0.727c0.043,0.028,0.219,0.127,0.549,0.317
		c0.311,0.18,0.767,0.438,1.357,0.782c1.338,0.739,2.277,1.397,2.754,1.913C30.362,19.771,30.623,20.374,30.641,21.066z"/>
</g>
<g>
	<defs>
		<rect id="SVGID_41_" x="-97.583" y="359.731" width="1024.938" height="370.783"/>
	</defs>
	<clipPath id="SVGID_2_">
		<use xlink:href="#SVGID_41_"  overflow="visible"/>
	</clipPath>
	<g opacity="0.3" clip-path="url(#SVGID_2_)">
		<g>
			<polygon opacity="0.4" fill="#00A6E8" stroke="#00A6E8" stroke-width="1.3195" stroke-miterlimit="10" points="667.659,547.643 
				135.243,-105.763 -100.59,-105.763 -100.59,15.229 			"/>
		</g>
	</g>
</g>
</svg>
