<?xml version="1.0" encoding="utf-8"?>
<!-- Generator: Adobe Illustrator 16.0.0, SVG Export Plug-In . SVG Version: 6.00 Build 0)  -->
<!DOCTYPE svg PUBLIC "-//W3C//DTD SVG 1.1//EN" "http://www.w3.org/Graphics/SVG/1.1/DTD/svg11.dtd">
<svg version="1.1" id="Layer_1" xmlns="http://www.w3.org/2000/svg" xmlns:xlink="http://www.w3.org/1999/xlink" x="0px" y="0px"
	 width="223.577px" height="61.486px" viewBox="0 0 223.577 61.486" enable-background="new 0 0 223.577 61.486"
	 xml:space="preserve">
<g>
	<g>
		<g>
			<rect x="183.619" y="15.089" fill="#FFFFFF" width="2.947" height="2.763"/>
			<rect x="183.619" y="39.158" fill="#FFFFFF" width="2.947" height="2.542"/>
		</g>
		<g>
			<g>
				<g>
					<polygon fill="#FFFFFF" points="38.658,34.348 22.639,34.333 20.077,17.346 13.741,17.342 17.707,38.386 42.858,38.412 
						46.859,17.373 41.25,17.368 					"/>
					<polygon fill="#FFFFFF" points="50.132,17.103 60.6,17.11 30.329,0 0,17.058 11.183,17.069 30.685,6.468 					"/>
				</g>
				<path fill="#FFFFFF" d="M36.453,25.063c0.02,1.153-0.373,2.069-1.188,2.748c-0.826,0.684-2.06,1.108-3.717,1.274l0.025,1.326
					l-2.3,0.03l-0.016-1.293c-0.903-0.066-1.83-0.332-2.778-0.809c-0.945-0.462-1.727-1.023-2.347-1.681l2.45-1.618
					c0.463,0.543,1.026,0.964,1.633,1.274c0.62,0.292,1.249,0.452,1.896,0.432c0.689,0.004,1.23-0.11,1.605-0.357
					c0.376-0.237,0.572-0.551,0.555-0.932c-0.02-0.414-0.215-0.794-0.633-1.156c-0.399-0.38-1.213-0.927-2.434-1.651
					c-0.573-0.343-1.072-0.643-1.489-0.909c-0.41-0.258-0.741-0.469-0.972-0.646c-0.761-0.536-1.328-1.079-1.67-1.6
					c-0.353-0.531-0.541-1.111-0.565-1.758c-0.018-0.956,0.353-1.765,1.106-2.422c0.744-0.654,1.849-1.13,3.291-1.415l-0.025-0.968
					l2.301-0.015l0.03,0.879c1.38,0.144,2.511,0.547,3.37,1.163c0.849,0.654,1.404,1.478,1.619,2.493l-3.26,0.695
					c-0.07-0.28-0.168-0.551-0.28-0.78c-0.124-0.244-0.266-0.45-0.446-0.625c-0.229-0.21-0.479-0.368-0.775-0.48
					c-0.309-0.073-0.648-0.137-1.057-0.137c-0.568,0.015-1.05,0.133-1.397,0.406c-0.34,0.274-0.505,0.643-0.505,1.102
					c0.011,0.306,0.127,0.557,0.347,0.805c0.229,0.251,0.621,0.532,1.16,0.865c0.053,0.033,0.263,0.151,0.653,0.376
					c0.37,0.214,0.913,0.521,1.615,0.931c1.591,0.879,2.71,1.662,3.277,2.275C36.12,23.522,36.43,24.238,36.453,25.063z"/>
			</g>
			<g>
				<path fill="#FFFFFF" d="M79.656,39.231h-5.748V24.168h-4.54v15.063h-5.752V18.576c0-2.464,0.678-4.363,2.05-5.666
					c1.373-1.316,3.353-1.98,5.971-1.98c2.8,0,4.844,0.627,6.102,1.842c1.275,1.234,1.918,3.17,1.918,5.803V39.231z M73.908,20.46
					v-3.048c0-1.156-0.171-1.991-0.506-2.467c-0.358-0.481-0.912-0.721-1.735-0.721c-0.879,0-1.481,0.229-1.825,0.699
					c-0.326,0.473-0.474,1.314-0.474,2.489v3.048H73.908z"/>
				<path fill="#FFFFFF" d="M93.543,22.41c-0.429-0.17-0.846-0.288-1.278-0.383c-0.417-0.104-0.872-0.148-1.343-0.148
					c-0.501,0-0.996,0.044-1.468,0.107c-0.5,0.052-0.838,0.189-1.037,0.359v16.887h-5.399V17.801h4.405l0.348,0.927
					c0.493-0.429,1.066-0.736,1.721-0.936c0.668-0.195,1.389-0.306,2.192-0.306c0.35,0,0.682,0.04,0.976,0.122
					c0.326,0.082,0.615,0.192,0.884,0.314V22.41z"/>
				<path fill="#FFFFFF" d="M109.211,38.545c0,2.094-0.679,3.712-2.034,4.853c-1.359,1.16-3.211,1.721-5.553,1.721
					c-0.962,0-1.946-0.078-2.939-0.262c-0.982-0.182-1.884-0.447-2.697-0.817l0.654-2.921c0.55,0.235,1.249,0.432,2.109,0.591
					c0.854,0.159,1.64,0.247,2.347,0.247c1.078,0,1.867-0.295,2.375-0.875c0.523-0.577,0.767-1.43,0.767-2.545
					c0-0.129,0-0.299-0.003-0.473c-0.022-0.18-0.044-0.372-0.063-0.568c-0.223,0.366-0.676,0.669-1.333,0.897
					c-0.684,0.215-1.478,0.328-2.368,0.328c-1.522,0-2.7-0.431-3.572-1.28c-0.857-0.851-1.439-2.234-1.725-4.123
					c-0.122-0.746-0.22-1.551-0.264-2.427c-0.05-0.849-0.076-1.824-0.076-2.855c0-1.13,0.065-2.256,0.173-3.409
					c0.111-1.152,0.27-2.042,0.452-2.641c0.393-1.396,1.039-2.497,1.945-3.302c0.906-0.788,2.015-1.197,3.325-1.197
					c0.626,0,1.171,0.07,1.677,0.188c0.488,0.125,0.964,0.339,1.44,0.624v-0.499h5.362V38.545z M103.849,35.265V21.218
					c-0.159-0.097-0.376-0.167-0.643-0.229c-0.288-0.06-0.528-0.093-0.732-0.093c-0.598,0-1.045,0.144-1.31,0.429
					c-0.295,0.284-0.475,0.82-0.543,1.61c-0.078,0.828-0.148,1.703-0.186,2.656c-0.045,0.938-0.059,1.784-0.059,2.508
					c0,1.153,0.014,2.239,0.066,3.254c0.05,1.031,0.107,1.873,0.178,2.564c0.055,0.646,0.229,1.123,0.498,1.4
					c0.262,0.288,0.631,0.424,1.126,0.424c0.374,0,0.673-0.034,0.908-0.104C103.398,35.556,103.611,35.419,103.849,35.265z"/>
				<path fill="#FFFFFF" d="M125.35,28.756h-7.89c0,3.173,0.137,5.179,0.382,6.051c0.249,0.872,0.767,1.299,1.562,1.299
					c0.523,0,0.938-0.15,1.2-0.495c0.243-0.321,0.39-0.897,0.39-1.695h3.854c0,1.884-0.51,3.272-1.484,4.178
					c-0.979,0.879-2.493,1.329-4.556,1.329c-2.264,0-3.988-0.897-5.146-2.759c-1.178-1.832-1.771-4.573-1.771-8.229
					c0-3.602,0.612-6.335,1.824-8.171c1.219-1.843,3.054-2.778,5.497-2.778c2.111,0,3.651,0.75,4.657,2.227
					c0.981,1.47,1.48,3.671,1.48,6.634V28.756z M120.892,25.698c0-1.876-0.098-3.141-0.308-3.838
					c-0.206-0.691-0.675-1.031-1.412-1.031c-0.688,0-1.15,0.299-1.373,0.912c-0.202,0.603-0.325,1.932-0.325,3.957H120.892z"/>
				<path fill="#FFFFFF" d="M142.094,39.231h-5.386V22.843c0-0.625-0.166-1.101-0.503-1.396c-0.347-0.303-0.815-0.443-1.392-0.443
					c-0.255,0-0.546,0.029-0.868,0.067c-0.329,0.051-0.588,0.128-0.813,0.203v17.958h-5.385V17.801h4.414l0.328,0.901
					c0.753-0.443,1.46-0.753,2.133-0.931c0.652-0.174,1.403-0.284,2.267-0.284c1.648,0,2.922,0.454,3.824,1.34
					c0.923,0.905,1.381,2.162,1.381,3.809V39.231z"/>
				<path fill="#FFFFFF" d="M161.497,18.805c0,2.545-0.594,4.448-1.81,5.688c-1.21,1.257-3.019,1.877-5.471,1.877h-2.846v12.861
					h-5.741V11.237h8.985c2.428,0,4.196,0.583,5.275,1.747C160.961,14.169,161.497,16.112,161.497,18.805z M155.764,18.805
					c0-1.497-0.247-2.615-0.768-3.332c-0.514-0.721-1.292-1.079-2.371-1.079h-1.254v8.828h1.254c1.079,0,1.869-0.335,2.382-1.004
					C155.517,21.55,155.764,20.404,155.764,18.805z"/>
				<path fill="#FFFFFF" d="M177.004,28.756h-7.883c0,3.173,0.129,5.179,0.374,6.051c0.25,0.872,0.767,1.299,1.564,1.299
					c0.536,0,0.917-0.15,1.186-0.495c0.252-0.321,0.39-0.897,0.39-1.695h3.856c0,1.884-0.495,3.272-1.483,4.178
					c-0.963,0.879-2.488,1.329-4.55,1.329c-2.265,0-3.974-0.897-5.143-2.759c-1.185-1.832-1.776-4.573-1.776-8.229
					c0-3.602,0.622-6.335,1.832-8.171c1.219-1.843,3.055-2.778,5.488-2.778c2.114,0,3.67,0.75,4.652,2.227
					c0.988,1.47,1.492,3.671,1.492,6.634V28.756z M172.534,25.698c0-1.876-0.11-3.141-0.295-3.857
					c-0.212-0.672-0.681-1.012-1.4-1.012c-0.714,0-1.176,0.299-1.389,0.912c-0.2,0.603-0.313,1.932-0.313,3.957H172.534z"/>
				<path fill="#FFFFFF" d="M191.121,33.662c0,1.829-0.547,3.239-1.636,4.248c-1.108,1.016-2.612,1.514-4.521,1.514
					c-2.05,0-3.612-0.469-4.636-1.407c-1.046-0.945-1.573-2.368-1.573-4.266h4.377c0,0.783,0.126,1.348,0.42,1.699
					c0.281,0.352,0.709,0.521,1.257,0.521c0.55,0,0.949-0.125,1.212-0.402c0.276-0.277,0.413-0.702,0.413-1.252
					c-0.01-0.51-0.291-1.064-0.861-1.665c-0.557-0.592-1.491-1.434-2.785-2.542c-1.635-1.382-2.681-2.592-3.117-3.631
					c-0.435-1.016-0.649-2.309-0.649-3.818c0-1.575,0.555-2.833,1.655-3.761c1.096-0.938,2.563-1.411,4.375-1.411
					c1.944,0,3.425,0.48,4.435,1.456c1.03,0.959,1.532,2.326,1.532,4.11h-4.267c0-0.649-0.159-1.186-0.454-1.574
					c-0.295-0.41-0.694-0.602-1.208-0.602c-0.433,0-0.786,0.125-1.071,0.391c-0.287,0.263-0.447,0.631-0.447,1.135
					c0,0.575,0.166,1.148,0.511,1.695c0.333,0.557,1.355,1.547,3.052,3.032c1.506,1.282,2.544,2.415,3.139,3.354
					C190.832,31.442,191.121,32.491,191.121,33.662z"/>
				<path fill="#FFFFFF" d="M206.957,28.436c0,3.841-0.593,6.626-1.789,8.376c-1.186,1.748-2.983,2.611-5.418,2.611
					c-2.375,0-4.171-0.897-5.371-2.759c-1.192-1.832-1.799-4.573-1.799-8.229c0-3.738,0.572-6.491,1.743-8.278
					c1.164-1.777,2.981-2.67,5.427-2.67c2.579,0,4.413,0.904,5.55,2.685C206.403,21.982,206.957,24.73,206.957,28.436z
					 M201.36,28.454c0-3.41-0.085-5.551-0.263-6.38c-0.166-0.827-0.624-1.244-1.332-1.244c-0.725,0-1.161,0.436-1.346,1.292
					c-0.174,0.869-0.272,3.002-0.272,6.435c0,3.339,0.099,5.422,0.295,6.276c0.199,0.853,0.639,1.274,1.323,1.274
					c0.634,0,1.059-0.458,1.279-1.355C201.253,33.838,201.36,31.745,201.36,28.454z"/>
				<path fill="#FFFFFF" d="M221.004,33.662c0,1.829-0.565,3.239-1.66,4.248c-1.084,1.016-2.588,1.514-4.497,1.514
					c-2.063,0-3.603-0.469-4.643-1.407c-1.047-0.945-1.571-2.368-1.571-4.266h4.348c0,0.783,0.168,1.348,0.439,1.699
					c0.288,0.352,0.703,0.521,1.264,0.521c0.55,0,0.941-0.125,1.219-0.402c0.266-0.277,0.406-0.702,0.406-1.252
					c0-0.51-0.287-1.064-0.854-1.665c-0.564-0.592-1.503-1.434-2.792-2.542c-1.647-1.382-2.683-2.592-3.121-3.631
					c-0.429-1.016-0.661-2.309-0.661-3.818c0-1.575,0.554-2.833,1.681-3.761c1.097-0.938,2.553-1.411,4.364-1.411
					c1.933,0,3.423,0.48,4.445,1.456c1.02,0.959,1.521,2.326,1.521,4.11h-4.281c0-0.649-0.141-1.186-0.435-1.574
					c-0.285-0.41-0.696-0.602-1.208-0.602c-0.436,0-0.799,0.125-1.079,0.391c-0.293,0.263-0.433,0.631-0.433,1.135
					c0,0.575,0.174,1.148,0.488,1.695c0.339,0.557,1.352,1.547,3.063,3.032c1.509,1.282,2.541,2.412,3.14,3.354
					C220.707,31.442,221.004,32.491,221.004,33.662z"/>
			</g>
			<path fill="#FFFFFF" d="M112.61,46.875l107.721-4.208c0,0,3.86-0.263,3.161,1.57l-2.09,1.902c0,0-0.771,0.946-3.274,0.669
				L112.61,46.875z"/>
		</g>
	</g>
	<g>
		<path fill="#FFFFFF" d="M163.972,60.982c-0.61-0.336-1.089-0.798-1.436-1.386c-0.347-0.589-0.52-1.251-0.52-1.988
			s0.173-1.399,0.52-1.987s0.827-1.05,1.441-1.386c0.613-0.336,1.299-0.504,2.057-0.504c0.593,0,1.134,0.1,1.625,0.298
			c0.491,0.199,0.91,0.493,1.257,0.883l-0.704,0.682c-0.571-0.599-1.282-0.899-2.134-0.899c-0.563,0-1.072,0.126-1.527,0.379
			c-0.455,0.252-0.811,0.601-1.066,1.045c-0.257,0.444-0.385,0.941-0.385,1.489c0,0.549,0.128,1.045,0.385,1.489
			c0.256,0.444,0.611,0.793,1.066,1.045c0.455,0.253,0.964,0.379,1.527,0.379c0.845,0,1.556-0.303,2.134-0.91l0.704,0.682
			c-0.347,0.39-0.768,0.687-1.262,0.889c-0.495,0.202-1.038,0.303-1.63,0.303C165.266,61.486,164.582,61.318,163.972,60.982z"/>
		<path fill="#FFFFFF" d="M177.061,59.504h-4.028l-0.834,1.896h-1.116l3.434-7.582h1.072l3.444,7.582h-1.138L177.061,59.504z
			 M176.682,58.638l-1.636-3.715l-1.636,3.715H176.682z"/>
		<path fill="#FFFFFF" d="M189.138,61.399l-0.011-5.524l-2.74,4.604h-0.499l-2.74-4.571v5.491h-1.039v-7.582h0.888l3.163,5.329
			l3.119-5.329h0.888l0.012,7.582H189.138z"/>
		<path fill="#FFFFFF" d="M200.542,58.134c0.253,0.321,0.38,0.728,0.38,1.219c0,0.657-0.247,1.163-0.742,1.516
			c-0.495,0.354-1.215,0.531-2.16,0.531h-3.618v-7.582h3.401c0.866,0,1.535,0.173,2.009,0.52c0.473,0.347,0.71,0.827,0.71,1.44
			c0,0.397-0.093,0.741-0.276,1.029c-0.185,0.289-0.433,0.509-0.742,0.661C199.943,57.591,200.289,57.813,200.542,58.134z
			 M195.484,54.695v2.426h2.221c0.556,0,0.983-0.103,1.283-0.309c0.3-0.206,0.449-0.507,0.449-0.904s-0.149-0.699-0.449-0.905
			c-0.3-0.206-0.728-0.309-1.283-0.309H195.484z M199.362,60.219c0.311-0.202,0.466-0.52,0.466-0.953
			c0-0.845-0.618-1.267-1.853-1.267h-2.491v2.523h2.491C198.589,60.522,199.052,60.421,199.362,60.219z"/>
		<path fill="#FFFFFF" d="M204.551,53.817h1.082v7.582h-1.082V53.817z"/>
		<path fill="#FFFFFF" d="M211.211,60.982c-0.613-0.336-1.096-0.8-1.445-1.392c-0.351-0.592-0.525-1.253-0.525-1.982
			c0-0.729,0.175-1.39,0.525-1.982c0.35-0.592,0.832-1.056,1.445-1.392s1.304-0.504,2.069-0.504c0.758,0,1.443,0.168,2.058,0.504
			c0.613,0.336,1.094,0.798,1.44,1.386s0.521,1.25,0.521,1.987s-0.174,1.399-0.521,1.988c-0.347,0.588-0.827,1.05-1.44,1.386
			c-0.614,0.336-1.3,0.504-2.058,0.504C212.515,61.486,211.824,61.318,211.211,60.982z M214.779,60.143
			c0.444-0.252,0.795-0.601,1.052-1.045c0.256-0.444,0.384-0.94,0.384-1.489c0-0.548-0.128-1.045-0.384-1.489
			c-0.257-0.444-0.607-0.792-1.052-1.045c-0.443-0.253-0.943-0.379-1.499-0.379c-0.557,0-1.06,0.126-1.512,0.379
			c-0.451,0.252-0.805,0.601-1.061,1.045c-0.257,0.444-0.385,0.941-0.385,1.489c0,0.549,0.128,1.045,0.385,1.489
			c0.256,0.444,0.609,0.793,1.061,1.045c0.452,0.253,0.955,0.379,1.512,0.379C213.836,60.522,214.336,60.396,214.779,60.143z"/>
	</g>
</g>
</svg>
