<?xml version="1.0" encoding="utf-8"?>
<!-- Generator: Adobe Illustrator 16.0.0, SVG Export Plug-In . SVG Version: 6.00 Build 0)  -->
<!DOCTYPE svg PUBLIC "-//W3C//DTD SVG 1.1//EN" "http://www.w3.org/Graphics/SVG/1.1/DTD/svg11.dtd">
<svg version="1.1" id="Layer_1" xmlns="http://www.w3.org/2000/svg" xmlns:xlink="http://www.w3.org/1999/xlink" x="0px" y="0px"
	 width="68.638px" height="78.568px" viewBox="0 0 68.638 78.568" enable-background="new 0 0 68.638 78.568" xml:space="preserve">
<g>
	<g>
		<g>
			<polygon fill="#FFFFFF" points="56.045,19.841 50.866,19.841 50.866,7.663 36.31,7.663 36.31,13.929 16.12,13.929 16.12,7.663 
				1.564,7.663 1.564,68.077 26.042,68.077 26.042,77.001 67.073,77.001 67.073,30.868 			"/>
			<path fill="#5BC0D4" d="M31.302,7.663V5.724c0-2.299-1.861-4.164-4.161-4.164h-1.853c-2.296,0-4.16,1.865-4.16,4.164v1.939H16.12
				v6.262H36.31V7.663H31.302z"/>
			<polygon fill="#5BC0D4" points="56.045,30.868 56.045,19.841 67.073,30.868 			"/>
			<path fill="#4A4342" d="M1.564,6.099C0.699,6.099,0,6.802,0,7.663v60.414c0,0.867,0.699,1.57,1.564,1.57h22.912v7.354
				c0,0.863,0.701,1.566,1.565,1.566h41.032c0.86,0,1.563-0.703,1.563-1.566V30.868c0-0.412-0.164-0.811-0.457-1.107L57.154,18.735
				c-0.299-0.293-0.695-0.461-1.109-0.461h-3.616V7.663c0-0.861-0.7-1.564-1.563-1.564H32.868V5.724
				c0-3.156-2.569-5.725-5.728-5.725h-1.85c-3.158,0-5.729,2.568-5.729,5.725v0.375H1.564z M3.13,66.513V9.233h11.426v4.695
				c0,0.863,0.702,1.563,1.564,1.563H36.31c0.864,0,1.567-0.699,1.567-1.563V9.233h11.424v9.041H26.042
				c-0.864,0-1.565,0.703-1.565,1.566v46.672H3.13z M27.606,21.403H54.48v9.465c0,0.863,0.698,1.566,1.564,1.566h9.462v43h-37.9
				V21.403z"/>
			<path fill="#4A4342" d="M33.217,39.667h19.624c0.867,0,1.566-0.699,1.566-1.564c0-0.867-0.699-1.566-1.566-1.566H33.217
				c-0.865,0-1.568,0.699-1.568,1.566C31.648,38.968,32.352,39.667,33.217,39.667"/>
			<path fill="#4A4342" d="M59.898,44.366H33.217c-0.865,0-1.568,0.701-1.568,1.566c0,0.861,0.703,1.559,1.568,1.559h26.682
				c0.865,0,1.566-0.697,1.566-1.559C61.465,45.067,60.764,44.366,59.898,44.366"/>
			<path fill="#4A4342" d="M59.898,52.188H33.217c-0.865,0-1.568,0.701-1.568,1.568c0,0.863,0.703,1.566,1.568,1.566h26.682
				c0.865,0,1.566-0.703,1.566-1.566C61.465,52.89,60.764,52.188,59.898,52.188"/>
			<path fill="#4A4342" d="M59.898,60.019H33.217c-0.865,0-1.568,0.703-1.568,1.566s0.703,1.563,1.568,1.563h26.682
				c0.865,0,1.566-0.699,1.566-1.563S60.764,60.019,59.898,60.019"/>
			<path fill="#4A4342" d="M59.898,36.536h-2.61c-0.864,0-1.563,0.699-1.563,1.566c0,0.865,0.698,1.564,1.563,1.564h2.61
				c0.865,0,1.566-0.699,1.566-1.564C61.465,37.235,60.764,36.536,59.898,36.536"/>
		</g>
	</g>
	<path fill="#00A5E7" d="M25.045,9.155c0.861,0,1.563-0.703,1.563-1.57c0-0.863-0.701-1.564-1.563-1.564h-2.35V5.646
		c0-1.43,1.163-2.598,2.597-2.598h1.85c1.43,0,2.595,1.168,2.595,2.598v1.939c0,0.867,0.702,1.57,1.566,1.57h3.439v3.125H17.688
		V9.155H25.045z"/>
	<polygon fill="#00A5E7" points="57.342,24.099 63.026,29.78 57.342,29.78 	"/>
</g>
</svg>
