<?xml version="1.0" encoding="utf-8"?>
<!-- Generator: Adobe Illustrator 16.0.0, SVG Export Plug-In . SVG Version: 6.00 Build 0)  -->
<!DOCTYPE svg PUBLIC "-//W3C//DTD SVG 1.1//EN" "http://www.w3.org/Graphics/SVG/1.1/DTD/svg11.dtd">
<svg version="1.1" id="Layer_1" xmlns="http://www.w3.org/2000/svg" xmlns:xlink="http://www.w3.org/1999/xlink" x="0px" y="0px"
	 width="74.323px" height="78.568px" viewBox="0 0 74.323 78.568" enable-background="new 0 0 74.323 78.568" xml:space="preserve">
<g>
	<path fill="#00A5E7" d="M72.659,74.705c0,2.133-1.73,3.863-3.863,3.863H5.528c-2.134,0-3.863-1.73-3.863-3.863l0,0
		c0-2.133,1.729-3.863,3.863-3.863h63.268C70.928,70.842,72.659,72.572,72.659,74.705L72.659,74.705z"/>
	<path fill="#4A4342" d="M8.922,67.477c-1.783,0-3.226,1.445-3.226,3.229c0,1.781,1.442,3.227,3.226,3.227h56.446
		c1.783,0,3.228-1.445,3.228-3.227c0-1.783-1.444-3.229-3.228-3.229h-0.804V38.447h0.804c0.894,0,1.614-0.723,1.614-1.613
		c0-0.889-0.723-1.611-1.614-1.611H8.922c-0.892,0-1.612,0.723-1.612,1.611c0,0.891,0.723,1.613,1.612,1.613h0.807v29.029H8.922
		L8.922,67.477z M58.111,38.447v29.029h-9.677V38.447H58.111z M41.983,38.447v29.029h-9.676V38.447H41.983z M16.178,38.447h9.678
		v29.029h-9.678V38.447z"/>
	<path fill="#FFFFFF" stroke="#4A4342" stroke-width="3.3282" stroke-miterlimit="10" d="M4.891,31.213h64.511
		c0.01,0,0.021,0,0.032,0c1.781,0,3.225-1.443,3.225-3.227c0-1.418-0.911-2.617-2.179-3.051L38.471,10.531
		c-0.841-0.377-1.804-0.377-2.645,0L3.566,25.047c-1.386,0.625-2.15,2.131-1.829,3.617C2.055,30.15,3.369,31.213,4.891,31.213z"/>
	<rect x="48.434" y="38.447" fill="#FFFFFF" width="9.677" height="29.029"/>
	<rect x="32.307" y="38.447" fill="#FFFFFF" width="9.676" height="29.029"/>
	<rect x="16.178" y="38.447" fill="#FFFFFF" width="9.678" height="29.029"/>
</g>
</svg>
