<?xml version="1.0" encoding="utf-8"?>
<!-- Generator: Adobe Illustrator 16.0.0, SVG Export Plug-In . SVG Version: 6.00 Build 0)  -->
<!DOCTYPE svg PUBLIC "-//W3C//DTD SVG 1.1//EN" "http://www.w3.org/Graphics/SVG/1.1/DTD/svg11.dtd">
<svg version="1.1" id="Layer_1" xmlns="http://www.w3.org/2000/svg" xmlns:xlink="http://www.w3.org/1999/xlink" x="0px" y="0px"
	 width="39.471px" height="78.567px" viewBox="0 0 39.471 78.567" enable-background="new 0 0 39.471 78.567" xml:space="preserve">
<g>
	<path fill="#4A4342" d="M34.352,78.567H5.121C2.293,78.567,0,76.275,0,73.446V10.569c0-2.827,2.293-5.121,5.121-5.121h29.23
		c2.826,0,5.119,2.294,5.119,5.121v62.877C39.471,76.275,37.178,78.567,34.352,78.567z"/>
	<rect x="2.561" y="16.331" fill="#FFFFFF" width="34.226" height="51.09"/>
	<path fill="#666261" d="M22.818,74.518h-6.033c-0.802,0-1.452-0.652-1.452-1.453v-0.279c0-0.805,0.65-1.453,1.452-1.453h6.033
		c0.804,0,1.453,0.648,1.453,1.453v0.279C24.271,73.865,23.622,74.518,22.818,74.518z"/>
	<circle fill="#00A6E8" stroke="#00A6E8" stroke-width="0.2886" stroke-miterlimit="10" cx="19.423" cy="42.009" r="11.307"/>
	<g>
		<g>
			<g>
				<g>
					<g>
						<polygon fill="#FFFFFF" points="21.173,46.075 17.345,46.07 16.731,42.009 15.217,42.007 16.164,47.04 22.18,47.046 
							23.135,42.015 21.794,42.015 						"/>
						<polygon fill="#FFFFFF" points="23.918,41.948 26.421,41.951 19.183,37.861 11.93,41.938 14.604,41.94 19.269,39.406 						
							"/>
					</g>
					<path fill="#FFFFFF" d="M20.646,43.853c0.007,0.276-0.088,0.495-0.283,0.659c-0.196,0.163-0.491,0.264-0.887,0.303l0.005,0.316
						l-0.549,0.008l-0.005-0.308c-0.216-0.017-0.438-0.079-0.665-0.192c-0.225-0.111-0.412-0.246-0.56-0.404l0.586-0.388
						c0.11,0.13,0.246,0.232,0.39,0.307c0.148,0.068,0.299,0.107,0.453,0.103c0.166,0.003,0.293-0.026,0.384-0.084
						c0.09-0.059,0.137-0.133,0.133-0.225c-0.005-0.098-0.051-0.189-0.151-0.277c-0.095-0.089-0.29-0.221-0.581-0.393
						c-0.138-0.084-0.256-0.155-0.356-0.219c-0.099-0.061-0.178-0.11-0.231-0.153c-0.183-0.129-0.319-0.258-0.401-0.385
						c-0.083-0.126-0.128-0.264-0.135-0.419c-0.004-0.227,0.085-0.422,0.266-0.58c0.177-0.156,0.442-0.27,0.786-0.338l-0.006-0.231
						l0.551-0.003l0.007,0.211c0.33,0.034,0.601,0.129,0.806,0.276c0.202,0.156,0.336,0.354,0.388,0.597l-0.779,0.166
						c-0.019-0.066-0.041-0.132-0.067-0.185c-0.03-0.059-0.064-0.108-0.106-0.15c-0.056-0.05-0.116-0.087-0.186-0.113
						c-0.074-0.019-0.154-0.034-0.254-0.034c-0.136,0.002-0.25,0.031-0.333,0.098c-0.082,0.065-0.121,0.152-0.121,0.264
						c0.004,0.073,0.03,0.132,0.083,0.192c0.055,0.058,0.148,0.126,0.276,0.205c0.014,0.008,0.063,0.037,0.157,0.09
						c0.088,0.053,0.218,0.124,0.386,0.225c0.382,0.208,0.649,0.396,0.783,0.543C20.568,43.486,20.642,43.657,20.646,43.853z"/>
				</g>
			</g>
		</g>
	</g>
</g>
</svg>
