<?xml version="1.0" encoding="utf-8"?>
<!-- Generator: Adobe Illustrator 16.0.0, SVG Export Plug-In . SVG Version: 6.00 Build 0)  -->
<!DOCTYPE svg PUBLIC "-//W3C//DTD SVG 1.1//EN" "http://www.w3.org/Graphics/SVG/1.1/DTD/svg11.dtd">
<svg version="1.1" id="Layer_1" xmlns="http://www.w3.org/2000/svg" xmlns:xlink="http://www.w3.org/1999/xlink" x="0px" y="0px"
	 width="35.189px" height="35.19px" viewBox="0 0 35.189 35.19" enable-background="new 0 0 35.189 35.19" xml:space="preserve">
<g>
	<path fill="#FFFFFF" d="M0,35.19c0.57-1.683,1.122-3.312,1.674-4.94c0.46-1.356,0.925-2.711,1.372-4.07
		c0.038-0.115,0.008-0.286-0.056-0.395c-0.929-1.602-1.632-3.296-1.974-5.116C-0.147,14.48,1.491,9.135,6,4.736
		c2.831-2.762,6.284-4.346,10.22-4.664c6.551-0.53,11.863,1.861,15.803,7.14c1.902,2.549,2.965,5.461,3.135,8.641
		c0.363,6.767-2.338,12.048-7.979,15.758c-3.355,2.207-7.108,2.982-11.104,2.574c-2.21-0.225-4.288-0.87-6.251-1.898
		c-0.175-0.092-0.327-0.104-0.517-0.043c-2.994,0.956-5.99,1.905-8.985,2.855C0.231,35.127,0.14,35.15,0,35.19z M4.349,30.949
		c1.823-0.579,3.574-1.132,5.32-1.694c0.182-0.059,0.32-0.053,0.484,0.051c1.867,1.18,3.898,1.898,6.094,2.151
		c3.066,0.353,5.963-0.205,8.668-1.682c2.274-1.243,4.101-2.976,5.449-5.198c1.996-3.291,2.577-6.829,1.748-10.572
		c-0.83-3.753-2.925-6.683-6.084-8.835c-2.038-1.39-4.31-2.189-6.778-2.399c-3.434-0.291-6.594,0.51-9.455,2.422
		c-2.14,1.429-3.786,3.316-4.929,5.623c-1.373,2.77-1.77,5.695-1.266,8.735c0.352,2.118,1.164,4.06,2.409,5.813
		c0.111,0.156,0.134,0.291,0.069,0.477c-0.443,1.281-0.876,2.565-1.311,3.85C4.634,30.088,4.503,30.486,4.349,30.949z"/>
	<path fill="#FFFFFF" d="M12.54,9.329c0.082,0,0.16,0.01,0.235-0.002c0.597-0.097,0.907,0.225,1.114,0.731
		c0.437,1.066,0.883,2.13,1.332,3.192c0.178,0.42-0.025,0.76-0.243,1.071c-0.259,0.369-0.564,0.705-0.858,1.049
		c-0.283,0.331-0.322,0.52-0.106,0.881c1.396,2.332,3.331,4.031,5.887,4.998c0.352,0.133,0.551,0.079,0.813-0.232
		c0.407-0.486,0.809-0.979,1.203-1.476c0.362-0.455,0.565-0.528,1.09-0.285c1.116,0.516,2.223,1.053,3.336,1.576
		c0.28,0.133,0.372,0.351,0.375,0.65c0.014,1.549-0.726,2.606-2.106,3.245c-1.026,0.476-2.094,0.676-3.19,0.3
		c-1.307-0.447-2.627-0.876-3.886-1.438c-1.444-0.644-2.655-1.654-3.756-2.787c-1.475-1.519-2.79-3.161-3.704-5.082
		c-0.63-1.322-0.788-2.707-0.276-4.117c0.286-0.787,0.774-1.436,1.408-1.975C11.596,9.299,12.063,9.271,12.54,9.329z"/>
</g>
</svg>
