<svg id="Layer_1" data-name="Layer 1" xmlns="http://www.w3.org/2000/svg" viewBox="0 0 24.19 21.64"><defs><style>.cls-1{fill:#fff;}</style></defs><title>cambiar</title><path class="cls-1" d="M17.15,21.64a2.9,2.9,0,0,1-.3-.82c0-.81,0-1.63,0-2.52h-.62c-3.19,0-6.39,0-9.59,0a3,3,0,0,1-3-4A6.73,6.73,0,0,1,4,13.57c.07,0,.12,0,.13,0a3.21,3.21,0,0,0,3,1.41c3.05,0,6.09,0,9.14,0h.61c0-.87,0-1.7,0-2.53a1,1,0,0,1,.27-.69.87.87,0,0,1,.72.16c2,1.37,3.95,2.77,5.92,4.16l.43.34v.41c-.53.39-1.05.8-1.58,1.18l-5.06,3.62Z"/><path class="cls-1" d="M7,0a2.93,2.93,0,0,1,.29.81c0,.82,0,1.63,0,2.53H17.6A2.89,2.89,0,0,1,20.3,5a3,3,0,0,1-.12,3.1c-.05,0-.1,0-.11,0a3.21,3.21,0,0,0-3-1.41c-3.05,0-6.09,0-9.14,0H7.35c0,.87,0,1.7,0,2.52,0,.25-.1.6-.27.69a.85.85,0,0,1-.72-.15C4.37,8.34,2.4,6.94.43,5.55.28,5.44.14,5.32,0,5.2V4.8L2.61,2.89,6.63,0Z"/></svg>