<svg id="Layer_1" data-name="Layer 1" xmlns="http://www.w3.org/2000/svg" viewBox="0 0 230.19 43.48"><defs><style>.cls-1{fill:#fff;}</style></defs><title>argencambio-white</title><path class="cls-1" d="M197.48,35.12v-.47a4.83,4.83,0,0,0,1.33.59,6.8,6.8,0,0,0,1.56.18,4.58,4.58,0,0,0,3.1-1.11,6.32,6.32,0,0,0,1.82-3.07,13.53,13.53,0,0,0,.42-2.46c.1-1.07.16-2.12.16-3.18s0-1.86-.07-2.65a20.74,20.74,0,0,0-.24-2.26,6.77,6.77,0,0,0-1.6-3.84,4.54,4.54,0,0,0-3.33-1.2,7.37,7.37,0,0,0-2.21.3,2.81,2.81,0,0,0-1,.56V8.65h-4.95v13.9h0l0,12.56Zm0-16.26a2.08,2.08,0,0,1,1.49-.44,1.33,1.33,0,0,1,1,.39,2.1,2.1,0,0,1,.46,1.31c.07.64.12,1.42.17,2.38s.06,2,.06,3c0,.68,0,1.47-.06,2.34s-.1,1.7-.18,2.47a2.34,2.34,0,0,1-.51,1.5,1.6,1.6,0,0,1-1.21.4,3.28,3.28,0,0,1-.68-.08,2.22,2.22,0,0,1-.6-.22Z"/><path class="cls-1" d="M66.59,9.06a7.59,7.59,0,0,0-5.48,1.81,6.83,6.83,0,0,0-1.88,5.19L59.2,35h5.27l0-13.8h4.17l0,13.8H73.9l0-18.93c0-2.42-.59-4.19-1.75-5.32S69.16,9.07,66.59,9.06Zm2.07,8.74H64.5V15a4.34,4.34,0,0,1,.44-2.29,1.92,1.92,0,0,1,1.67-.63,1.83,1.83,0,0,1,1.59.66A4.14,4.14,0,0,1,68.67,15Z"/><path class="cls-1" d="M85,15.1a7,7,0,0,0-2,.28,4.28,4.28,0,0,0-1.58.85l-.31-.85H77L77,35h5l0-15.48a1.78,1.78,0,0,1,1-.33,9.85,9.85,0,0,1,1.34-.1,4.89,4.89,0,0,1,1.24.13,7.58,7.58,0,0,1,1.17.35V15.5a5.34,5.34,0,0,0-.81-.28A3.37,3.37,0,0,0,85,15.1Z"/><path class="cls-1" d="M96.1,15.86a4.79,4.79,0,0,0-1.31-.58,6.77,6.77,0,0,0-1.54-.18,4.51,4.51,0,0,0-3.05,1.1,6.21,6.21,0,0,0-1.79,3A13.3,13.3,0,0,0,88,21.64c-.1,1.05-.16,2.09-.16,3.13s0,1.84.06,2.61a20.46,20.46,0,0,0,.24,2.22,6.67,6.67,0,0,0,1.58,3.78A4.46,4.46,0,0,0,93,34.57a7.2,7.2,0,0,0,2.17-.3,2.19,2.19,0,0,0,1.22-.82c0,.18,0,.36.06.52s0,.32,0,.44a3.37,3.37,0,0,1-.7,2.33,2.71,2.71,0,0,1-2.18.79,11.22,11.22,0,0,1-2.15-.22,9.23,9.23,0,0,1-1.93-.54l-.6,2.68a10.09,10.09,0,0,0,2.47.75,14.75,14.75,0,0,0,2.69.25,7.58,7.58,0,0,0,5.09-1.57A5.48,5.48,0,0,0,101,34.42l0-19H96.1Zm0,15.54a2.9,2.9,0,0,1-.64.34,2.94,2.94,0,0,1-.83.09,1.31,1.31,0,0,1-1-.39,2.06,2.06,0,0,1-.46-1.29c-.07-.63-.12-1.4-.16-2.35s-.06-1.93-.06-3c0-.67,0-1.45.06-2.3s.1-1.67.18-2.43a2.31,2.31,0,0,1,.5-1.47,1.58,1.58,0,0,1,1.2-.39,3.2,3.2,0,0,1,.67.08,2.17,2.17,0,0,1,.59.21Z"/><path class="cls-1" d="M115.33,30.19H111.8a2.65,2.65,0,0,1-.36,1.55,1.3,1.3,0,0,1-1.1.46,1.41,1.41,0,0,1-1.43-1.2,26.46,26.46,0,0,1-.35-5.54h7.23V23.26a11.07,11.07,0,0,0-1.35-6.08,4.79,4.79,0,0,0-4.27-2,5.65,5.65,0,0,0-5,2.54c-1.11,1.68-1.68,4.18-1.68,7.49S104,31,105.08,32.7a5.19,5.19,0,0,0,4.71,2.54A6.11,6.11,0,0,0,114,34,5,5,0,0,0,115.33,30.19ZM108.89,19a1.36,1.36,0,0,1,2.55.1,14.27,14.27,0,0,1,.28,3.52h-3.13A14.22,14.22,0,0,1,108.89,19Z"/><path class="cls-1" d="M122.94,18.62a4.07,4.07,0,0,1,.74-.18,6.83,6.83,0,0,1,.8-.06,1.86,1.86,0,0,1,1.27.41,1.63,1.63,0,0,1,.46,1.28l0,15h4.94l0-15.21a4.66,4.66,0,0,0-1.26-3.49,4.81,4.81,0,0,0-3.5-1.23,8.07,8.07,0,0,0-2.08.26,8.32,8.32,0,0,0-2,.85l-.3-.82h-4l0,19.64h4.94Z"/><path class="cls-1" d="M142.37,35.94c2.74,0,4.71-.76,5.86-2.26a10,10,0,0,0,1.68-6.14V25h-5.5V27.8a13.72,13.72,0,0,1-.14,2.2,2,2,0,0,1-.55,1.12,1.85,1.85,0,0,1-1.31.39,1.8,1.8,0,0,1-1.71-.76,6.27,6.27,0,0,1-.52-3V16.42a11.92,11.92,0,0,1,.17-2.22A2.08,2.08,0,0,1,141,13a2.09,2.09,0,0,1,1.44-.41,2,2,0,0,1,1.35.38,1.76,1.76,0,0,1,.52,1,14,14,0,0,1,.12,2.11v2.72h5.5V16.19a9,9,0,0,0-1.72-5.88c-1.16-1.4-3.12-2.1-5.81-2.1-2.87,0-4.94.81-6.15,2.41s-1.77,3.85-1.77,6.8v9.34a11.11,11.11,0,0,0,1.79,6.72C137.45,35.11,139.51,35.94,142.37,35.94Z"/><path class="cls-1" d="M155.87,24.58a7.69,7.69,0,0,0-2.72,2.35A6.46,6.46,0,0,0,152,30.79a5.19,5.19,0,0,0,.55,2.31,4.78,4.78,0,0,0,1.56,1.82,4,4,0,0,0,2.34.72,3.74,3.74,0,0,0,2.64-1,5.1,5.1,0,0,0,1.11-1.51c.09.54.2,1.19.35,2l0,.19h4.57l0-.26a39,39,0,0,1-.34-4.77v-9a6.75,6.75,0,0,0-1.44-4.59A5.63,5.63,0,0,0,159,15.06a6.61,6.61,0,0,0-4.91,1.67,7.46,7.46,0,0,0-1.74,5.14v.22l4.81.19.08-1.41c.05-1.74.82-1.94,1.39-1.94a1,1,0,0,1,1,.5,4.37,4.37,0,0,1,.3,1.87v1.53A40.12,40.12,0,0,0,155.87,24.58Zm4,1.08v5a4.12,4.12,0,0,1-.77.77,1.54,1.54,0,0,1-1,.36,1.1,1.1,0,0,1-1-.52,2.79,2.79,0,0,1-.38-1.58,3.24,3.24,0,0,1,.82-2.26A10.55,10.55,0,0,1,159.92,25.65Z"/><path class="cls-1" d="M172.86,19.57a4.46,4.46,0,0,1,1.09-.74,2.58,2.58,0,0,1,1.08-.28,1.12,1.12,0,0,1,.91.36,2.21,2.21,0,0,1,.32,1.37V35.34h4.81V19.57a3.91,3.91,0,0,1,1.07-.73c.91-.42,1.64-.36,2,.07a2.28,2.28,0,0,1,.3,1.38V35.34h4.85V19.85a5.39,5.39,0,0,0-1.05-3.56A3.49,3.49,0,0,0,185.44,15a6.44,6.44,0,0,0-4.85,2.16,3.52,3.52,0,0,0-1.2-1.53,3.68,3.68,0,0,0-2.16-.63,6.28,6.28,0,0,0-4.37,1.75V15.36H168v20h4.88Z"/><rect class="cls-1" x="208.47" y="15.36" width="5.05" height="19.98"/><rect class="cls-1" x="208.47" y="8.44" width="5.05" height="4.27"/><path class="cls-1" d="M223.28,35.64a5.71,5.71,0,0,0,5.08-2.45c1.12-1.64,1.68-4.25,1.68-7.86s-.52-6.05-1.55-7.75a6.53,6.53,0,0,0-10.3,0c-1.1,1.68-1.63,4.26-1.63,7.76s.57,6,1.69,7.72A5.58,5.58,0,0,0,223.28,35.64ZM222,19.41c.17-.8.58-1.21,1.26-1.21s1.09.39,1.25,1.17a41.11,41.11,0,0,1,.24,6,35.29,35.29,0,0,1-.29,5.91c-.21.84-.61,1.27-1.2,1.27s-1.05-.4-1.24-1.19a36.27,36.27,0,0,1-.28-5.89A42.36,42.36,0,0,1,222,19.41Z"/><polygon class="cls-1" points="35.1 31.19 20.56 31.17 18.23 15.75 12.48 15.75 16.08 34.85 38.91 34.88 42.55 15.77 37.45 15.77 35.1 31.19"/><polygon class="cls-1" points="0 15.49 10.15 15.5 27.86 5.87 45.52 15.53 55.02 15.54 27.54 0 0 15.49"/><path class="cls-1" d="M28.8,24a2.62,2.62,0,0,1-1.46.32,3.75,3.75,0,0,1-1.72-.39,4.83,4.83,0,0,1-1.48-1.16L21.91,24.2A7.26,7.26,0,0,0,24,25.73a6.69,6.69,0,0,0,2.52.73v1.17l2.09,0,0-1.2A6.2,6.2,0,0,0,32,25.25a3,3,0,0,0,1.08-2.49,3,3,0,0,0-.83-2,12.81,12.81,0,0,0-3-2.07l-1.47-.84-.59-.34a5.22,5.22,0,0,1-1.05-.78,1.12,1.12,0,0,1-.31-.73,1.22,1.22,0,0,1,.46-1,2.11,2.11,0,0,1,1.27-.37,4,4,0,0,1,1,.12,2.14,2.14,0,0,1,.7.44,2.07,2.07,0,0,1,.41.57,3.68,3.68,0,0,1,.26.71l3-.63a3.79,3.79,0,0,0-1.47-2.26,6.31,6.31,0,0,0-3.06-1.06l0-.8H26.22l0,.88a6.35,6.35,0,0,0-3,1.28,2.74,2.74,0,0,0-1,2.2,3,3,0,0,0,.51,1.6,5.76,5.76,0,0,0,1.52,1.45c.21.16.51.35.88.59s.83.51,1.35.83a14,14,0,0,1,2.21,1.5,1.45,1.45,0,0,1,.57,1A.93.93,0,0,1,28.8,24Z"/><path class="cls-1" d="M226.76,40.07l-115,3.41,112.51,0c2.66.23,3.51-.54,3.51-.54l2.29-1.55C230.88,39.85,226.76,40.07,226.76,40.07Z"/></svg>