<svg id="Layer_1" data-name="Layer 1" xmlns="http://www.w3.org/2000/svg" viewBox="0 0 27.97 28.29"><defs><style>.cls-1{fill:#fff;}.cls-2{fill:#604787;}.cls-3{fill:#108fcf;}</style></defs><title>ahora_18</title><path class="cls-1" d="M26.55,14.32A12.41,12.41,0,0,1,14,26.57,12.41,12.41,0,0,1,1.42,14.32,12.41,12.41,0,0,1,14,2.06,12.41,12.41,0,0,1,26.55,14.32"/><path class="cls-2" d="M19.24,18.51c-.82,0-.5.83-1.35,1.84l0,0a2.61,2.61,0,0,1-2.11.86c-2.07,0-3-1.43-3-4.52s1-4.49,3-4.51h0a2.55,2.55,0,0,1,2.55,1.56s0,0,0,.05a1.6,1.6,0,0,1,.1.23.7.7,0,0,0,.87.47c.42-.1.73-.7.14-2a4,4,0,0,0-3.1-2.18c-1.26-.15-2.22.59-2.63.53s-.22-.64,0-1.63a11.51,11.51,0,0,1,1.11-2.83,1.52,1.52,0,0,0,.25-.77.94.94,0,0,0-1-.91c-.73,0-1.59,1.26-2.17,3a17.53,17.53,0,0,0-.62,3.37c-.08.75,0,1.11-.39,1.11s-.24-.57-.18-1.55a15.56,15.56,0,0,1,.18-1.84,2.1,2.1,0,0,0,0-1.11.75.75,0,0,0-.66-.46c-.84,0-1.36,1.28-1.46,2.8-.08,1.23-.14,1.77-.12,3,0,.89,0,1.33-.32,1.33s-.32-.47-.32-1,0-1,0-1.28c.05-.65.12-1.2.12-1.71a.59.59,0,0,0-.7-.57c-.93.07-.9,2.28-1,3.59-.19,2.84.68,5.89,1.79,7.27a7.28,7.28,0,0,0,6.23,3.1c2.24,0,3.54-.51,4.61-1.94,1.4-1.88,1.1-3.33.14-3.33"/><path class="cls-3" d="M15.76,19.85c1,0,1.26-.87,1.26-3.14s-.27-3.12-1.26-3.12-1.27.85-1.27,3.12.28,3.14,1.27,3.14"/><path class="cls-2" d="M18.43,15.13a1.32,1.32,0,0,0-.31,0l-.38.11a.4.4,0,0,0-.3.38.4.4,0,0,0,.39.39L18,16H18v1.71a.43.43,0,0,0,.85,0V15.55a.43.43,0,0,0-.44-.42"/><path class="cls-2" d="M21.16,16.59A.78.78,0,0,0,21.4,16c0-.51-.45-.87-1.08-.87s-1.09.36-1.09.88a.78.78,0,0,0,.24.58.76.76,0,0,0-.33.68c0,.53.48.91,1.18.91s1.17-.38,1.17-.94a.75.75,0,0,0-.33-.65m-.84.42c.15,0,.34,0,.34.21s-.14.21-.34.21-.34-.09-.34-.22.18-.2.34-.2m0-.74c-.16,0-.26-.07-.26-.21s.1-.18.26-.18.26.09.26.19-.11.2-.26.2"/><path class="cls-3" d="M14,28.29a14,14,0,1,1,14-14,14,14,0,0,1-14,14M14,2.88A11.43,11.43,0,1,0,25.41,14.31,11.44,11.44,0,0,0,14,2.88"/></svg>