<svg id="Layer_1" data-name="Layer 1" xmlns="http://www.w3.org/2000/svg" viewBox="0 0 89.5 97.82"><defs><style>.cls-1{fill:#00a551;}</style></defs><title>icon-cambio-gotham</title><path class="cls-1" d="M57,54.72H32a4.06,4.06,0,0,0-.58-.16C26.83,54,24,50.93,24,46.64q0-17.45,0-34.9C24,7.47,27.4,4.18,32,4c1.29,0,2.57-.11,3.86-.17h4.61c2.62.05,5.24.19,7.85.13a5.61,5.61,0,0,1,4.09,1.36c4,3.63,7.88,7.32,11.8,11a4.7,4.7,0,0,1,1.38,3.72q-.06,13.49,0,27c0,3.32-1.74,5.58-4.88,6.88A20.29,20.29,0,0,1,57,54.72ZM28.1,29.29c0,5.76,0,11.52,0,17.28,0,2.53,1.75,4.19,4.48,4.2q12.25,0,24.49,0c2.63,0,4.46-1.66,4.47-4.11q0-12.37,0-24.74c0-1.67-.7-2.28-2.53-2.31-2.51-.05-5-.08-7.52-.12-1.66,0-2.37-.65-2.46-2.16,0-.49,0-1,0-1.47,0-2,0-4-.11-6-.07-1.58-.75-2.12-2.45-2.11-4.57,0-9.13,0-13.7.06-3,0-4.62,1.63-4.62,4.4Q28.1,20.76,28.1,29.29Z"/><path class="cls-1" d="M44.79,42.93H34.6a2.07,2.07,0,0,1-2.27-1.87,2,2,0,0,1,2.21-1.94c6.83,0,13.66,0,20.49,0a2,2,0,0,1,2.2,1.42,1.73,1.73,0,0,1-1,2.11,3.17,3.17,0,0,1-1.39.26C51.5,42.94,48.14,42.93,44.79,42.93Z"/><path class="cls-1" d="M44.86,23.52H55c1.41,0,2.21.66,2.25,1.82s-.7,1.9-2.15,1.91q-10.35,0-20.7,0a1.9,1.9,0,0,1-2.1-1.87,2.15,2.15,0,0,1,2.24-1.9C38,23.58,41.43,23.52,44.86,23.52Z"/><path class="cls-1" d="M42.79,35.07c-2.74,0-5.48,0-8.23,0-1.39,0-2.2-.72-2.2-1.86s.72-1.84,2.1-1.85q8.29-.06,16.57,0a1.87,1.87,0,0,1,2.08,2c-.06,1.08-.85,1.72-2.21,1.72-2.7,0-5.4,0-8.11,0Z"/><path class="cls-1" d="M18.26,84.58v3.13h7v2.94h-7v5.69H15V81.64H26.22v2.94Z"/><path class="cls-1" d="M39.15,96.34,37.81,93H31.59l-1.34,3.3H27l6.3-14.8h3l6.3,14.8ZM34.7,85.42l-2,4.77h3.91Zm-1.3-4.93,2.37-3.72L38.52,78l-2.69,2.52Z"/><path class="cls-1" d="M51.1,96.59A7.42,7.42,0,0,1,43.56,89v0a7.47,7.47,0,0,1,7.66-7.6A7.58,7.58,0,0,1,57,83.65L55,86a5.42,5.42,0,0,0-3.76-1.66,4.35,4.35,0,0,0-4.26,4.58v0a4.37,4.37,0,0,0,4.26,4.62,5.31,5.31,0,0,0,3.86-1.72L57.13,94A7.51,7.51,0,0,1,51.1,96.59Z"/><path class="cls-1" d="M59.27,96.34V81.64H62.5v14.7Z"/><path class="cls-1" d="M65.59,96.34V81.64h3.23V93.4h7.33v2.94Z"/></svg>