<svg id="Layer_1" data-name="Layer 1" xmlns="http://www.w3.org/2000/svg" viewBox="0 0 57.01 93.09"><defs><style>.cls-1{fill:#00a551;}</style></defs><title>Argenpesos_Cambio-cambio_de_color</title><path class="cls-1" d="M10.46,84.35h3.11v2.2H10.46v6.37H8.05V77.5h6.38v2.2h-4Z"/><path class="cls-1" d="M24.55,92.91H22.11l-.42-2.8h-3l-.42,2.8H16.1L18.56,77.5h3.53ZM22.9,74.24l-2.24,2.45H19l1.49-2.45ZM19,88h2.32l-1.16-7.8Z"/><path class="cls-1" d="M34.09,87.16v2c0,2.47-1.23,3.88-3.6,3.88s-3.6-1.41-3.6-3.88v-8c0-2.47,1.23-3.88,3.6-3.88s3.6,1.41,3.6,3.88v1.5H31.81V81c0-1.1-.48-1.52-1.25-1.52s-1.25.42-1.25,1.52v8.33c0,1.1.48,1.5,1.25,1.5s1.25-.4,1.25-1.5v-2.2Z"/><path class="cls-1" d="M37,77.5H39.4V92.91H37Z"/><path class="cls-1" d="M42.58,77.5H45V90.71h4v2.2H42.58Z"/><path class="cls-1" d="M40.75,52.26h-25a4.06,4.06,0,0,0-.58-.16c-4.58-.58-7.46-3.63-7.46-7.92q0-17.45,0-34.9c0-4.27,3.45-7.56,8.05-7.71,1.29,0,2.57-.11,3.86-.17h4.61c2.62.05,5.24.19,7.85.13a5.61,5.61,0,0,1,4.09,1.36c4,3.63,7.88,7.32,11.8,11a4.7,4.7,0,0,1,1.38,3.72q-.06,13.49,0,27c0,3.32-1.74,5.58-4.88,6.88A20.29,20.29,0,0,1,40.75,52.26ZM11.88,26.84c0,5.76,0,11.52,0,17.28,0,2.53,1.75,4.19,4.48,4.2q12.25,0,24.49,0c2.63,0,4.46-1.66,4.47-4.11q0-12.37,0-24.74c0-1.67-.7-2.28-2.53-2.31-2.51-.05-5-.08-7.52-.12-1.66,0-2.37-.65-2.46-2.16,0-.49,0-1,0-1.47,0-2,0-4-.11-6-.07-1.58-.75-2.12-2.45-2.11-4.57,0-9.13,0-13.7.06-3,0-4.62,1.63-4.62,4.4Q11.87,18.31,11.88,26.84Z"/><path class="cls-1" d="M28.56,40.48H18.37A2.07,2.07,0,0,1,16.1,38.6a2,2,0,0,1,2.21-1.94c6.83,0,13.66,0,20.49,0A2,2,0,0,1,41,38.1a1.73,1.73,0,0,1-1,2.11,3.17,3.17,0,0,1-1.39.26C35.27,40.49,31.91,40.48,28.56,40.48Z"/><path class="cls-1" d="M28.63,21.06H38.8c1.41,0,2.21.66,2.25,1.82s-.7,1.9-2.15,1.91q-10.35,0-20.7,0a1.9,1.9,0,0,1-2.1-1.87A2.15,2.15,0,0,1,18.34,21C21.77,21.13,25.2,21.06,28.63,21.06Z"/><path class="cls-1" d="M26.56,32.62c-2.74,0-5.48,0-8.23,0-1.39,0-2.2-.72-2.2-1.86s.72-1.84,2.1-1.85q8.29-.06,16.57,0a1.87,1.87,0,0,1,2.08,2C36.81,32,36,32.59,34.66,32.6c-2.7,0-5.4,0-8.11,0Z"/></svg>