<svg id="Layer_1" data-name="Layer 1" xmlns="http://www.w3.org/2000/svg" viewBox="0 0 89.5 97.82"><defs><style>.cls-1{fill:#00a551;}</style></defs><title>icon-cambio-gotham</title><path class="cls-1" d="M66.06,43.7l.7.77c.59.66.41,1.24-.46,1.43l-5.82,1.29c-.43.09-.85.2-1.27.29-.78.16-1.21-.28-1-1q1.09-3.52,2.22-7c.24-.75.84-.88,1.38-.31.27.28.52.56.81.88a18.38,18.38,0,0,0,1.9-4.66c1.95-7.94.18-14.94-5.54-20.8a19.69,19.69,0,0,0-12.72-6c-9.23-.77-16.46,2.8-21,10.87A21.34,21.34,0,0,0,52.65,49.19a2.3,2.3,0,0,1,3.09.64c.17.18.34.35.49.54a1.61,1.61,0,0,1-.53,2.69A34.79,34.79,0,0,1,50.47,55a25.55,25.55,0,0,1-23.18-5.14,25,25,0,0,1-9-14.93A26,26,0,0,1,29.92,7.59a25.23,25.23,0,0,1,15.53-4,25.48,25.48,0,0,1,19.14,10A25.15,25.15,0,0,1,70,27.45,26,26,0,0,1,66.22,43.4Z"/><path class="cls-1" d="M46.13,20.37c0,1.73,0,3.45,0,5.18a.91.91,0,0,0,.32.62,4.27,4.27,0,0,1,1.36,5.4.64.64,0,0,0,.1.75q2.61,3.73,5.2,7.46a2.16,2.16,0,0,1-.37,3.07,2.12,2.12,0,0,1-3.08-.52c-1-1.41-2-2.85-3-4.28-.85-1.21-1.68-2.44-2.55-3.64a1.06,1.06,0,0,0-.66-.39,4.36,4.36,0,0,1-3.72-3.21,4.28,4.28,0,0,1,1.68-4.61.84.84,0,0,0,.42-.8q0-5.15,0-10.3A2,2,0,0,1,43,13.18a2,2,0,0,1,2.14.1,2.14,2.14,0,0,1,1,1.9Q46.13,17.78,46.13,20.37Z"/><path class="cls-1" d="M13.64,96.34l-3.15-4.7H7.95v4.7H4.71V81.64h6.72c3.46,0,5.54,1.83,5.54,4.85v0a4.56,4.56,0,0,1-3.15,4.56l3.59,5.25Zm.06-9.68c0-1.38-1-2.1-2.54-2.1H7.95v4.22h3.28c1.58,0,2.48-.84,2.48-2.08Z"/><path class="cls-1" d="M30.25,96.34,28.9,93H22.69l-1.34,3.3H18l6.3-14.8h3l6.3,14.8ZM25.79,85.42l-2,4.77h3.91Zm-1.3-4.93,2.37-3.72L29.62,78l-2.69,2.52Z"/><path class="cls-1" d="M41,91.93H38.54v4.41H35.31V81.64h6c3.51,0,5.63,2.08,5.63,5.08v0C46.94,90.16,44.3,91.93,41,91.93Zm2.67-5.14c0-1.45-1-2.23-2.62-2.23h-2.5v4.49H41.1a2.28,2.28,0,0,0,2.56-2.23Z"/><path class="cls-1" d="M48.9,96.34V81.64h3.23v14.7Z"/><path class="cls-1" d="M60.95,96.34H55.22V81.64h5.73c4.62,0,7.81,3.17,7.81,7.31v0C68.76,93.12,65.57,96.34,60.95,96.34ZM65.38,89a4.22,4.22,0,0,0-4.43-4.43h-2.5v8.86h2.5A4.19,4.19,0,0,0,65.38,89Z"/><path class="cls-1" d="M78.19,96.59A7.53,7.53,0,0,1,70.4,89v0a7.81,7.81,0,0,1,15.62,0v0A7.6,7.6,0,0,1,78.19,96.59ZM82.64,89a4.47,4.47,0,0,0-4.45-4.62,4.4,4.4,0,0,0-4.41,4.58v0a4.47,4.47,0,0,0,4.45,4.62A4.4,4.4,0,0,0,82.64,89Z"/></svg>