<svg id="Layer_1" data-name="Layer 1" xmlns="http://www.w3.org/2000/svg" viewBox="0 0 57.01 93.09"><defs><style>.cls-1{fill:#00a551;}</style></defs><title>Argenpesos_Cambio-cambio_de_color</title><path class="cls-1" d="M5.42,84H8.73v2.2H5.42v4.51H9.59v2.2H3V77.5H9.59v2.2H5.42Z"/><path class="cls-1" d="M14.92,84.35H18v2.2H14.92v6.37H12.5V77.5h6.38v2.2h-4Z"/><path class="cls-1" d="M21.48,77.5h2.41V92.91H21.48Z"/><path class="cls-1" d="M34.07,87.16v2c0,2.47-1.23,3.88-3.6,3.88s-3.6-1.41-3.6-3.88v-8c0-2.47,1.23-3.88,3.6-3.88s3.6,1.41,3.6,3.88v1.5H31.78V81c0-1.1-.48-1.52-1.25-1.52s-1.25.42-1.25,1.52v8.33c0,1.1.48,1.5,1.25,1.5s1.25-.4,1.25-1.5v-2.2Z"/><path class="cls-1" d="M44.77,92.91H42.33l-.42-2.8H39l-.42,2.8H36.33L38.78,77.5h3.53ZM39.26,88h2.32l-1.16-7.8Z"/><path class="cls-1" d="M54,77.5v2.16L49.42,90.71H54v2.2H46.94V90.75L51.53,79.7H47.16V77.5Z"/><path class="cls-1" d="M23.42,52.26a6.76,6.76,0,0,1-3.51-2.73C16.33,44.73,12.69,40,9.08,35.19a4.55,4.55,0,1,1,7.26-5.46q3.45,4.52,6.87,9.06c.2.27.41.53.69.88L26,36.29Q34.52,22.64,43,9a5.5,5.5,0,0,1,3.41-2.49h1.42A12.33,12.33,0,0,1,50.6,8.23c1.45,1.57,1.35,3.62,0,5.8q-10.91,17.52-21.81,35a6.29,6.29,0,0,1-3.73,3.18Z"/></svg>