<svg id="Layer_1" data-name="Layer 1" xmlns="http://www.w3.org/2000/svg" viewBox="0 0 89.5 97.82"><defs><style>.cls-1{fill:#00a551;}</style></defs><title>icon-cambio-gotham</title><path class="cls-1" d="M39.42,51a6.76,6.76,0,0,1-3.51-2.73c-3.58-4.8-7.22-9.56-10.83-14.34a4.55,4.55,0,1,1,7.26-5.46q3.45,4.52,6.87,9.06c.2.27.41.53.69.88L42,35q8.5-13.65,17-27.31a5.5,5.5,0,0,1,3.41-2.49h1.42a12.33,12.33,0,0,1,2.76,1.74c1.45,1.57,1.35,3.62,0,5.8q-10.91,17.52-21.81,35A6.29,6.29,0,0,1,41,51Z"/><path class="cls-1" d="M7.35,96.41V81.71H18.43v2.88H10.56v3h6.93v2.88H10.56v3.09h8v2.88Z"/><path class="cls-1" d="M24.06,84.65v3.13h7v2.94h-7v5.69H20.83V81.71H32v2.94Z"/><path class="cls-1" d="M34.17,96.41V81.71H37.4v14.7Z"/><path class="cls-1" d="M47.37,96.66a7.42,7.42,0,0,1-7.54-7.56v0a7.47,7.47,0,0,1,7.66-7.6,7.58,7.58,0,0,1,5.79,2.27L51.24,86.1a5.42,5.42,0,0,0-3.76-1.66A4.35,4.35,0,0,0,43.22,89v0a4.36,4.36,0,0,0,4.26,4.62A5.3,5.3,0,0,0,51.34,92L53.4,94A7.51,7.51,0,0,1,47.37,96.66Z"/><path class="cls-1" d="M66.34,96.41,65,93.11H58.78l-1.34,3.3h-3.3l6.3-14.8h3l6.3,14.8ZM61.88,85.49l-2,4.77h3.91Z"/><path class="cls-1" d="M71,96.41V93.95L79,84.54H71.21V81.71h12v2.46l-8.08,9.41H83.2v2.83Z"/></svg>