<?xml version="1.0" encoding="utf-8"?>
<!-- Generator: Adobe Illustrator 16.0.0, SVG Export Plug-In . SVG Version: 6.00 Build 0)  -->
<!DOCTYPE svg PUBLIC "-//W3C//DTD SVG 1.1//EN" "http://www.w3.org/Graphics/SVG/1.1/DTD/svg11.dtd">
<svg version="1.1" id="Layer_1" xmlns="http://www.w3.org/2000/svg" xmlns:xlink="http://www.w3.org/1999/xlink" x="0px" y="0px"
	 width="57.008px" height="111.549px" viewBox="0 0 57.008 111.549" enable-background="new 0 0 57.008 111.549"
	 xml:space="preserve">
<g>
	<g>
		<linearGradient id="SVGID_1_" gradientUnits="userSpaceOnUse" x1="3.5977" y1="70.1963" x2="3.5977" y2="102.096">
			<stop  offset="0" style="stop-color:#00ADEE"/>
			<stop  offset="0.0347" style="stop-color:#00ABEB"/>
			<stop  offset="0.4" style="stop-color:#0094CC"/>
			<stop  offset="0.7116" style="stop-color:#0087BA"/>
			<stop  offset="0.931" style="stop-color:#0082B3"/>
		</linearGradient>
		<path fill="url(#SVGID_1_)" d="M3.62,78.59c2.346,0,3.553,1.41,3.553,3.877v0.484H4.891v-0.639c0-1.102-0.438-1.52-1.205-1.52
			c-0.769,0-1.207,0.418-1.207,1.52c0,3.172,4.716,3.767,4.716,8.171c0,2.469-1.229,3.878-3.597,3.878
			C1.228,94.361,0,92.952,0,90.483v-0.945h2.282v1.101c0,1.101,0.482,1.497,1.249,1.497c0.769,0,1.251-0.396,1.251-1.497
			c0-3.171-4.716-3.767-4.716-8.172C0.066,80,1.272,78.59,3.62,78.59z"/>
		<linearGradient id="SVGID_2_" gradientUnits="userSpaceOnUse" x1="13.293" y1="70.1963" x2="13.293" y2="102.0962">
			<stop  offset="0" style="stop-color:#00ADEE"/>
			<stop  offset="0.0347" style="stop-color:#00ABEB"/>
			<stop  offset="0.4" style="stop-color:#0094CC"/>
			<stop  offset="0.7116" style="stop-color:#0087BA"/>
			<stop  offset="0.931" style="stop-color:#0082B3"/>
		</linearGradient>
		<path fill="url(#SVGID_2_)" d="M12.416,85.265h3.312v2.203h-3.312v4.514h4.167v2.203h-6.58V78.767h6.58v2.203h-4.167V85.265z"/>
		<linearGradient id="SVGID_3_" gradientUnits="userSpaceOnUse" x1="22.9004" y1="70.1963" x2="22.9004" y2="102.096">
			<stop  offset="0" style="stop-color:#00ADEE"/>
			<stop  offset="0.0347" style="stop-color:#00ABEB"/>
			<stop  offset="0.4" style="stop-color:#0094CC"/>
			<stop  offset="0.7116" style="stop-color:#0087BA"/>
			<stop  offset="0.931" style="stop-color:#0082B3"/>
		</linearGradient>
		<path fill="url(#SVGID_3_)" d="M23.12,85.594h3.377v4.89c0,2.469-1.229,3.878-3.597,3.878c-2.369,0-3.598-1.409-3.598-3.878
			v-8.017c0-2.467,1.229-3.877,3.598-3.877c2.368,0,3.597,1.41,3.597,3.877v1.498h-2.28v-1.652c0-1.102-0.482-1.52-1.251-1.52
			c-0.767,0-1.25,0.418-1.25,1.52v8.326c0,1.101,0.483,1.497,1.25,1.497c0.769,0,1.251-0.396,1.251-1.497v-2.842H23.12V85.594z"/>
		<linearGradient id="SVGID_4_" gradientUnits="userSpaceOnUse" x1="32.9678" y1="70.1963" x2="32.9678" y2="102.0961">
			<stop  offset="0" style="stop-color:#00ADEE"/>
			<stop  offset="0.0347" style="stop-color:#00ABEB"/>
			<stop  offset="0.4" style="stop-color:#0094CC"/>
			<stop  offset="0.7116" style="stop-color:#0087BA"/>
			<stop  offset="0.931" style="stop-color:#0082B3"/>
		</linearGradient>
		<path fill="url(#SVGID_4_)" d="M31.783,78.767V90.66c0,1.102,0.483,1.498,1.251,1.498c0.767,0,1.25-0.396,1.25-1.498V78.767h2.28
			v11.74c0,2.467-1.229,3.876-3.596,3.876c-2.369,0-3.598-1.409-3.598-3.876v-11.74H31.783z"/>
		<linearGradient id="SVGID_5_" gradientUnits="userSpaceOnUse" x1="43.3867" y1="70.1963" x2="43.3867" y2="102.0962">
			<stop  offset="0" style="stop-color:#00ADEE"/>
			<stop  offset="0.0347" style="stop-color:#00ABEB"/>
			<stop  offset="0.4" style="stop-color:#0094CC"/>
			<stop  offset="0.7116" style="stop-color:#0087BA"/>
			<stop  offset="0.931" style="stop-color:#0082B3"/>
		</linearGradient>
		<path fill="url(#SVGID_5_)" d="M44.682,94.185c-0.131-0.396-0.22-0.639-0.22-1.895v-2.423c0-1.431-0.481-1.96-1.578-1.96H42.05
			v6.277h-2.413V78.767h3.642c2.5,0,3.575,1.167,3.575,3.546v1.211c0,1.587-0.505,2.621-1.579,3.128
			c1.207,0.507,1.601,1.675,1.601,3.283v2.378c0,0.749,0.021,1.3,0.263,1.872H44.682z M42.05,80.97v4.735h0.942
			c0.899,0,1.448-0.396,1.448-1.631v-1.52c0-1.102-0.373-1.585-1.228-1.585H42.05z"/>
		<linearGradient id="SVGID_7_" gradientUnits="userSpaceOnUse" x1="53.3457" y1="70.1963" x2="53.3457" y2="102.096">
			<stop  offset="0" style="stop-color:#00ADEE"/>
			<stop  offset="0.0347" style="stop-color:#00ABEB"/>
			<stop  offset="0.4" style="stop-color:#0094CC"/>
			<stop  offset="0.7116" style="stop-color:#0087BA"/>
			<stop  offset="0.931" style="stop-color:#0082B3"/>
		</linearGradient>
		<path fill="url(#SVGID_7_)" d="M49.683,82.467c0-2.467,1.294-3.877,3.662-3.877c2.369,0,3.663,1.41,3.663,3.877v8.017
			c0,2.469-1.294,3.878-3.663,3.878c-2.368,0-3.662-1.409-3.662-3.878V82.467z M52.096,90.639c0,1.101,0.482,1.52,1.249,1.52
			c0.769,0,1.251-0.419,1.251-1.52v-8.326c0-1.102-0.482-1.52-1.251-1.52c-0.767,0-1.249,0.418-1.249,1.52V90.639z"/>
	</g>
	<g>
		<linearGradient id="SVGID_8_" gradientUnits="userSpaceOnUse" x1="6.8457" y1="26.5254" x2="50.1621" y2="26.5254">
			<stop  offset="0" style="stop-color:#00ADEE"/>
			<stop  offset="0.0347" style="stop-color:#00ABEB"/>
			<stop  offset="0.4" style="stop-color:#0094CC"/>
			<stop  offset="0.7116" style="stop-color:#0087BA"/>
			<stop  offset="0.931" style="stop-color:#0082B3"/>
		</linearGradient>
		<path fill="url(#SVGID_8_)" d="M50.162,27.028c0,7.92,0,15.839,0,23.759c-0.726,1.671-2.042,2.271-3.979,2.263
			c-11.83-0.054-23.659-0.024-35.489-0.029c-2.842-0.001-3.841-0.925-3.844-3.56c-0.009-7.016-0.003-14.03-0.003-21.045
			c0-0.271-0.006-0.541,0.014-0.81c0.123-1.735,1.17-2.718,3.023-2.824c0.434-0.024,0.869-0.009,1.304-0.013
			c2.308-0.021,2.038,0.225,2.057-1.981c0.03-3.552-0.088-7.111,0.116-10.654c0.338-5.851,4.341-10.476,10.184-11.686
			C25.676,0.007,27.974-0.1,30.15,0.09c5.457,0.474,9.441,3.079,11.312,7.967c0.699,1.825,1.028,3.84,1.123,5.785
			c0.174,3.58,0.049,7.173,0.049,10.928c1.228,0,2.331,0.063,3.422-0.014C48.023,24.619,49.441,25.254,50.162,27.028z
			 M36.606,24.683c0-4.265,0.227-8.405-0.064-12.514c-0.277-3.901-2.765-6.028-6.906-6.642c-5.664-0.838-9.983,1.836-10.375,6.825
			c-0.319,4.061-0.065,8.161-0.065,12.33C25.017,24.683,30.782,24.683,36.606,24.683z"/>
	</g>
	<linearGradient id="SVGID_9_" gradientUnits="userSpaceOnUse" x1="14.8262" y1="110.5654" x2="42.1826" y2="110.5654">
		<stop  offset="0" style="stop-color:#00ADEE"/>
		<stop  offset="0.0347" style="stop-color:#00ABEB"/>
		<stop  offset="0.4" style="stop-color:#0094CC"/>
		<stop  offset="0.7116" style="stop-color:#0087BA"/>
		<stop  offset="0.931" style="stop-color:#0082B3"/>
	</linearGradient>
	
		<line fill="none" stroke="url(#SVGID_9_)" stroke-width="2" stroke-linecap="round" stroke-miterlimit="10" x1="15.826" y1="110.565" x2="41.183" y2="110.565"/>
</g>
</svg>
