<svg id="Layer_1" data-name="Layer 1" xmlns="http://www.w3.org/2000/svg" viewBox="0 0 89.5 97.82"><defs><style>.cls-1{fill:#00a551;}</style></defs><title>icon-cambio-gotham</title><path class="cls-1" d="M64.86,29.18V52.94c-.73,1.67-2,2.27-4,2.26-11.83-.05-23.66,0-35.49,0-2.84,0-3.84-.92-3.84-3.56q0-10.52,0-21c0-.27,0-.54,0-.81a2.85,2.85,0,0,1,3-2.82c.43,0,.87,0,1.3,0,2.31,0,2,.23,2.06-2,0-3.55-.09-7.11.12-10.65A12.47,12.47,0,0,1,38.24,2.6a23.19,23.19,0,0,1,6.6-.36c5.46.47,9.44,3.08,11.31,8A18.91,18.91,0,0,1,57.28,16c.17,3.58,0,7.17,0,10.93,1.23,0,2.33.06,3.42,0C62.72,26.77,64.14,27.41,64.86,29.18ZM51.31,26.83c0-4.26.23-8.4-.07-12.51-.28-3.9-2.76-6-6.91-6.64-5.66-.84-10,1.84-10.38,6.83-.32,4.06-.06,8.16-.06,12.33Z"/><path class="cls-1" d="M7.07,96.55A9.35,9.35,0,0,1,.83,94.19l1.91-2.29a6.74,6.74,0,0,0,4.39,1.78c1.32,0,2.12-.52,2.12-1.39v0c0-.82-.5-1.24-3-1.87-3-.76-4.87-1.58-4.87-4.49v0c0-2.67,2.14-4.43,5.14-4.43A8.51,8.51,0,0,1,12,83.3l-1.68,2.44a6.9,6.9,0,0,0-3.82-1.45c-1.24,0-1.89.57-1.89,1.28v0c0,1,.63,1.28,3.17,1.93,3,.78,4.66,1.85,4.66,4.41v0C12.46,94.91,10.24,96.55,7.07,96.55Z"/><path class="cls-1" d="M14.69,96.34V81.64H25.77v2.88H17.9v3h6.93v2.88H17.9v3.09h8v2.88Z"/><path class="cls-1" d="M35.25,96.59A7.36,7.36,0,0,1,27.52,89v0a7.54,7.54,0,0,1,7.71-7.6,8.07,8.07,0,0,1,5.77,2l-2,2.46a5.41,5.41,0,0,0-3.84-1.49,4.41,4.41,0,0,0-4.22,4.58v0a4.4,4.4,0,0,0,4.45,4.66,5.16,5.16,0,0,0,3-.88v-2.1H35.14V87.87h6.38v6.38A9.54,9.54,0,0,1,35.25,96.59Z"/><path class="cls-1" d="M50.18,96.57c-3.95,0-6.36-2.2-6.36-6.53v-8.4H47V90c0,2.39,1.2,3.63,3.17,3.63s3.17-1.2,3.17-3.53V81.64h3.23v8.29C56.62,94.38,54.12,96.57,50.18,96.57Z"/><path class="cls-1" d="M68.26,96.34l-3.15-4.7H62.57v4.7H59.33V81.64h6.72c3.46,0,5.54,1.83,5.54,4.85v0a4.56,4.56,0,0,1-3.15,4.56L72,96.34Zm.06-9.68c0-1.38-1-2.1-2.54-2.1H62.57v4.22h3.28c1.58,0,2.48-.84,2.48-2.08Z"/><path class="cls-1" d="M81.07,96.59A7.53,7.53,0,0,1,73.28,89v0a7.81,7.81,0,0,1,15.62,0v0A7.6,7.6,0,0,1,81.07,96.59ZM85.52,89a4.47,4.47,0,0,0-4.45-4.62,4.4,4.4,0,0,0-4.41,4.58v0a4.47,4.47,0,0,0,4.45,4.62A4.4,4.4,0,0,0,85.52,89Z"/></svg>