<?xml version="1.0" encoding="utf-8"?>
<!-- Generator: Adobe Illustrator 16.0.0, SVG Export Plug-In . SVG Version: 6.00 Build 0)  -->
<!DOCTYPE svg PUBLIC "-//W3C//DTD SVG 1.1//EN" "http://www.w3.org/Graphics/SVG/1.1/DTD/svg11.dtd">
<svg version="1.1" id="Layer_1" xmlns="http://www.w3.org/2000/svg" xmlns:xlink="http://www.w3.org/1999/xlink" x="0px" y="0px"
	 width="42.91px" height="108.838px" viewBox="0 0 42.91 108.838" enable-background="new 0 0 42.91 108.838" xml:space="preserve">
<g>
	<g>
		<linearGradient id="SVGID_1_" gradientUnits="userSpaceOnUse" x1="4.8252" y1="67.4824" x2="4.8252" y2="99.3824">
			<stop  offset="0" style="stop-color:#00ADEE"/>
			<stop  offset="0.0347" style="stop-color:#00ABEB"/>
			<stop  offset="0.4" style="stop-color:#0094CC"/>
			<stop  offset="0.7116" style="stop-color:#0087BA"/>
			<stop  offset="0.931" style="stop-color:#0082B3"/>
		</linearGradient>
		<path fill="url(#SVGID_1_)" d="M4.047,82.903h3.114v2.202H4.047v6.365H1.634V76.053h6.383v2.203h-3.97V82.903z"/>
		<linearGradient id="SVGID_2_" gradientUnits="userSpaceOnUse" x1="13.9063" y1="67.4834" x2="13.9062" y2="99.3827">
			<stop  offset="0" style="stop-color:#00ADEE"/>
			<stop  offset="0.0347" style="stop-color:#00ABEB"/>
			<stop  offset="0.4" style="stop-color:#0094CC"/>
			<stop  offset="0.7116" style="stop-color:#0087BA"/>
			<stop  offset="0.931" style="stop-color:#0082B3"/>
		</linearGradient>
		<path fill="url(#SVGID_2_)" d="M18.128,91.471h-2.435l-0.416-2.798h-2.961l-0.418,2.798H9.685l2.456-15.418h3.531L18.128,91.471z
			 M16.482,72.793l-2.236,2.445h-1.623l1.492-2.445H16.482z M12.623,86.581h2.324l-1.162-7.797L12.623,86.581z"/>
		<linearGradient id="SVGID_3_" gradientUnits="userSpaceOnUse" x1="24.0732" y1="67.4824" x2="24.0732" y2="99.3821">
			<stop  offset="0" style="stop-color:#00ADEE"/>
			<stop  offset="0.0347" style="stop-color:#00ABEB"/>
			<stop  offset="0.4" style="stop-color:#0094CC"/>
			<stop  offset="0.7116" style="stop-color:#0087BA"/>
			<stop  offset="0.931" style="stop-color:#0082B3"/>
		</linearGradient>
		<path fill="url(#SVGID_3_)" d="M27.67,85.723v2.047c0,2.469-1.228,3.878-3.597,3.878s-3.597-1.409-3.597-3.878v-8.017
			c0-2.467,1.228-3.877,3.597-3.877s3.597,1.41,3.597,3.877v1.498h-2.28v-1.652c0-1.102-0.482-1.52-1.251-1.52
			c-0.767,0-1.249,0.418-1.249,1.52v8.326c0,1.101,0.482,1.497,1.249,1.497c0.769,0,1.251-0.396,1.251-1.497v-2.202H27.67z"/>
		<linearGradient id="SVGID_4_" gradientUnits="userSpaceOnUse" x1="31.7734" y1="67.4824" x2="31.7734" y2="99.3824">
			<stop  offset="0" style="stop-color:#00ADEE"/>
			<stop  offset="0.0347" style="stop-color:#00ABEB"/>
			<stop  offset="0.4" style="stop-color:#0094CC"/>
			<stop  offset="0.7116" style="stop-color:#0087BA"/>
			<stop  offset="0.931" style="stop-color:#0082B3"/>
		</linearGradient>
		<path fill="url(#SVGID_4_)" d="M30.566,76.053h2.413v15.418h-2.413V76.053z"/>
		<linearGradient id="SVGID_5_" gradientUnits="userSpaceOnUse" x1="39.3496" y1="67.4824" x2="39.3496" y2="99.3824">
			<stop  offset="0" style="stop-color:#00ADEE"/>
			<stop  offset="0.0347" style="stop-color:#00ABEB"/>
			<stop  offset="0.4" style="stop-color:#0094CC"/>
			<stop  offset="0.7116" style="stop-color:#0087BA"/>
			<stop  offset="0.931" style="stop-color:#0082B3"/>
		</linearGradient>
		<path fill="url(#SVGID_5_)" d="M36.158,76.053h2.413v13.215h3.97v2.203h-6.383V76.053z"/>
	</g>
	<linearGradient id="SVGID_7_" gradientUnits="userSpaceOnUse" x1="8.4092" y1="107.8516" x2="35.7656" y2="107.8516">
		<stop  offset="0" style="stop-color:#00ADEE"/>
		<stop  offset="0.0347" style="stop-color:#00ABEB"/>
		<stop  offset="0.4" style="stop-color:#0094CC"/>
		<stop  offset="0.7116" style="stop-color:#0087BA"/>
		<stop  offset="0.931" style="stop-color:#0082B3"/>
	</linearGradient>
	
		<line fill="none" stroke="url(#SVGID_7_)" stroke-width="2" stroke-linecap="round" stroke-miterlimit="10" x1="9.409" y1="107.852" x2="34.766" y2="107.852"/>
	<g>
		<linearGradient id="SVGID_8_" gradientUnits="userSpaceOnUse" x1="1.2637" y1="25.4307" x2="42.9102" y2="25.4307">
			<stop  offset="0" style="stop-color:#00ADEE"/>
			<stop  offset="0.0347" style="stop-color:#00ABEB"/>
			<stop  offset="0.4" style="stop-color:#0094CC"/>
			<stop  offset="0.7116" style="stop-color:#0087BA"/>
			<stop  offset="0.931" style="stop-color:#0082B3"/>
		</linearGradient>
		<path fill="url(#SVGID_8_)" d="M34.287,50.862c-8.33,0-16.659,0-24.989,0c-0.191-0.054-0.38-0.133-0.575-0.157
			c-4.579-0.576-7.458-3.629-7.458-7.916c-0.001-11.635-0.001-23.27,0-34.903c0-4.267,3.45-7.563,8.055-7.712
			C10.606,0.132,11.893,0.059,13.18,0c1.536,0,3.073,0,4.609,0c2.617,0.053,5.237,0.189,7.852,0.128
			c1.611-0.038,2.999,0.366,4.091,1.364c3.972,3.633,7.882,7.324,11.802,11.006c1.09,1.023,1.384,2.288,1.377,3.717
			c-0.037,8.99-0.032,17.981-0.012,26.973c0.008,3.321-1.737,5.575-4.877,6.88C36.878,50.543,35.538,50.609,34.287,50.862z
			 M5.416,25.437c0,5.761-0.01,11.522,0.005,17.283c0.006,2.528,1.754,4.192,4.478,4.2c8.164,0.023,16.328,0.022,24.491,0
			c2.635-0.007,4.465-1.661,4.474-4.105c0.031-8.246,0.015-16.493-0.008-24.739c-0.005-1.672-0.704-2.276-2.533-2.314
			c-2.506-0.052-5.011-0.078-7.516-0.12c-1.658-0.028-2.366-0.65-2.456-2.158c-0.028-0.488-0.038-0.979-0.046-1.468
			c-0.033-1.995-0.016-3.993-0.109-5.985c-0.074-1.583-0.75-2.118-2.453-2.113c-4.566,0.014-9.134,0.007-13.7,0.063
			C7.05,4.016,5.42,5.604,5.418,8.378C5.412,14.064,5.416,19.75,5.416,25.437z"/>
		<linearGradient id="SVGID_9_" gradientUnits="userSpaceOnUse" x1="9.6436" y1="37.167" x2="34.6143" y2="37.167">
			<stop  offset="0" style="stop-color:#00ADEE"/>
			<stop  offset="0.0347" style="stop-color:#00ABEB"/>
			<stop  offset="0.4" style="stop-color:#0094CC"/>
			<stop  offset="0.7116" style="stop-color:#0087BA"/>
			<stop  offset="0.931" style="stop-color:#0082B3"/>
		</linearGradient>
		<path fill="url(#SVGID_9_)" d="M22.1,39.075c-3.396,0-6.791,0.007-10.186-0.003c-1.295-0.004-2.266-0.822-2.271-1.869
			c-0.006-1.09,0.887-1.936,2.205-1.938c6.831-0.016,13.661-0.001,20.492,0.007c1.08,0.001,1.911,0.404,2.196,1.425
			c0.252,0.904-0.124,1.664-0.984,2.111c-0.394,0.205-0.921,0.254-1.388,0.257C28.81,39.085,25.455,39.075,22.1,39.075z"/>
		<linearGradient id="SVGID_10_" gradientUnits="userSpaceOnUse" x1="9.6416" y1="21.5186" x2="34.5898" y2="21.5186">
			<stop  offset="0" style="stop-color:#00ADEE"/>
			<stop  offset="0.0347" style="stop-color:#00ABEB"/>
			<stop  offset="0.4" style="stop-color:#0094CC"/>
			<stop  offset="0.7116" style="stop-color:#0087BA"/>
			<stop  offset="0.931" style="stop-color:#0082B3"/>
		</linearGradient>
		<path fill="url(#SVGID_10_)" d="M22.171,19.663c3.389,0,6.778-0.004,10.168,0.002c1.409,0.003,2.208,0.659,2.249,1.818
			c0.042,1.175-0.703,1.901-2.149,1.907c-6.899,0.025-13.799,0.025-20.698,0.004c-1.29-0.004-2.1-0.803-2.099-1.87
			c0.002-0.872,0.948-1.934,2.241-1.896C15.309,19.73,18.741,19.663,22.171,19.663z"/>
		<linearGradient id="SVGID_11_" gradientUnits="userSpaceOnUse" x1="9.6699" y1="29.3486" x2="30.4219" y2="29.3486">
			<stop  offset="0" style="stop-color:#00ADEE"/>
			<stop  offset="0.0347" style="stop-color:#00ABEB"/>
			<stop  offset="0.4" style="stop-color:#0094CC"/>
			<stop  offset="0.7116" style="stop-color:#0087BA"/>
			<stop  offset="0.931" style="stop-color:#0082B3"/>
		</linearGradient>
		<path fill="url(#SVGID_11_)" d="M20.1,31.22c-2.742,0-5.485,0.015-8.227-0.005c-1.391-0.011-2.197-0.722-2.203-1.862
			c-0.006-1.11,0.724-1.837,2.095-1.847c5.524-0.039,11.05-0.043,16.574-0.019c1.347,0.007,2.146,0.849,2.079,1.99
			c-0.063,1.083-0.851,1.715-2.213,1.722c-2.701,0.013-5.403,0.004-8.105,0.004C20.1,31.209,20.1,31.215,20.1,31.22z"/>
	</g>
</g>
</svg>
