<svg id="Layer_1" data-name="Layer 1" xmlns="http://www.w3.org/2000/svg" viewBox="0 0 57.01 93.09"><defs><style>.cls-1{fill:#00a551;}</style></defs><title>Argenpesos_Cambio-cambio_de_color</title><path class="cls-1" d="M3.62,77.3c2.35,0,3.55,1.41,3.55,3.88v.49H4.89V81c0-1.1-.44-1.52-1.21-1.52S2.48,79.92,2.48,81c0,3.17,4.72,3.77,4.72,8.17,0,2.47-1.23,3.88-3.6,3.88S0,91.66,0,89.19v-.95H2.28v1.1c0,1.1.48,1.5,1.25,1.5s1.25-.4,1.25-1.5c0-3.17-4.72-3.77-4.72-8.17C.07,78.71,1.27,77.3,3.62,77.3Z"/><path class="cls-1" d="M12.42,84h3.31v2.2H12.42v4.51h4.17v2.2H10V77.47h6.58v2.2H12.42Z"/><path class="cls-1" d="M23.12,84.3H26.5v4.89c0,2.47-1.23,3.88-3.6,3.88s-3.6-1.41-3.6-3.88v-8c0-2.47,1.23-3.88,3.6-3.88s3.6,1.41,3.6,3.88v1.5H24.22V81c0-1.1-.48-1.52-1.25-1.52s-1.25.42-1.25,1.52v8.33c0,1.1.48,1.5,1.25,1.5s1.25-.4,1.25-1.5V86.5h-1.1Z"/><path class="cls-1" d="M31.78,77.47V89.37c0,1.1.48,1.5,1.25,1.5s1.25-.4,1.25-1.5V77.47h2.28V89.21c0,2.47-1.23,3.88-3.6,3.88s-3.6-1.41-3.6-3.88V77.47Z"/><path class="cls-1" d="M44.68,92.89A4.76,4.76,0,0,1,44.46,91V88.57c0-1.43-.48-2-1.58-2H42v6.28H39.64V77.47h3.64c2.5,0,3.58,1.17,3.58,3.55v1.21c0,1.59-.51,2.62-1.58,3.13,1.21.51,1.6,1.67,1.6,3.28V91a4.56,4.56,0,0,0,.26,1.87ZM42,79.68v4.74H43c.9,0,1.45-.4,1.45-1.63V81.26c0-1.1-.37-1.59-1.23-1.59Z"/><path class="cls-1" d="M49.68,81.17c0-2.47,1.29-3.88,3.66-3.88S57,78.71,57,81.17v8c0,2.47-1.29,3.88-3.66,3.88s-3.66-1.41-3.66-3.88Zm2.41,8.17c0,1.1.48,1.52,1.25,1.52s1.25-.42,1.25-1.52V81c0-1.1-.48-1.52-1.25-1.52S52.1,79.92,52.1,81Z"/><path class="cls-1" d="M48.93,27V50.07c-.71,1.62-2,2.21-3.87,2.2-11.49-.05-23,0-34.48,0-2.76,0-3.73-.9-3.73-3.46q0-10.22,0-20.45c0-.26,0-.52,0-.79A2.77,2.77,0,0,1,9.8,24.8c.42,0,.84,0,1.27,0,2.24,0,2,.22,2-1.93,0-3.45-.09-6.91.11-10.35A12.12,12.12,0,0,1,23.07,1.16,22.53,22.53,0,0,1,29.49.81c5.3.46,9.17,3,11,7.74a18.37,18.37,0,0,1,1.09,5.62c.17,3.48,0,7,0,10.62,1.19,0,2.26.06,3.32,0C46.85,24.64,48.23,25.26,48.93,27ZM35.76,24.7c0-4.14.22-8.17-.06-12.16C35.43,8.75,33,6.69,29,6.09c-5.5-.81-9.7,1.78-10.08,6.63-.31,3.95-.06,7.93-.06,12Z"/></svg>