<svg id="Layer_1" data-name="Layer 1" xmlns="http://www.w3.org/2000/svg" viewBox="0 0 57.01 93.09"><defs><style>.cls-1{fill:#00a551;}</style></defs><title>Argenpesos_Cambio-cambio_de_color</title><path class="cls-1" d="M6.8,92.91A4.76,4.76,0,0,1,6.58,91V88.59c0-1.43-.48-2-1.58-2H4.17v6.28H1.76V77.49H5.4C7.9,77.49,9,78.66,9,81v1.21c0,1.59-.51,2.62-1.58,3.13C8.6,85.88,9,87,9,88.66V91a4.55,4.55,0,0,0,.26,1.87ZM4.17,79.69v4.74h.94c.9,0,1.45-.4,1.45-1.63V81.28c0-1.1-.37-1.59-1.23-1.59Z"/><path class="cls-1" d="M19.81,92.91H17.37L17,90.11H14l-.42,2.8H11.36l2.46-15.42h3.53ZM18.16,74.23l-2.24,2.45H14.3l1.49-2.45ZM14.3,88h2.32l-1.16-7.8Z"/><path class="cls-1" d="M29.5,81.3v2c0,2.47-1.19,3.81-3.6,3.81H24.77v5.79H22.35V77.49h3.55C28.32,77.49,29.5,78.83,29.5,81.3Zm-4.74-1.61v5.22h1.14c.77,0,1.18-.35,1.18-1.45V81.15c0-1.1-.42-1.45-1.18-1.45Z"/><path class="cls-1" d="M32.16,77.49h2.41V92.91H32.16Z"/><path class="cls-1" d="M37.75,77.49h3.82c2.41,0,3.6,1.34,3.6,3.81v7.8c0,2.47-1.19,3.81-3.6,3.81H37.75Zm2.41,2.2v11h1.36c.77,0,1.23-.4,1.23-1.5v-8c0-1.1-.46-1.5-1.23-1.5Z"/><path class="cls-1" d="M47.93,81.19c0-2.47,1.29-3.88,3.66-3.88s3.66,1.41,3.66,3.88v8c0,2.47-1.29,3.88-3.66,3.88s-3.66-1.41-3.66-3.88Zm2.41,8.17c0,1.1.48,1.52,1.25,1.52s1.25-.42,1.25-1.52V81c0-1.1-.48-1.52-1.25-1.52s-1.25.42-1.25,1.52Z"/><path class="cls-1" d="M50.61,40.14l.7.77c.59.66.41,1.24-.46,1.43L45,43.63c-.43.09-.85.2-1.27.29-.78.16-1.21-.28-1-1q1.09-3.52,2.22-7c.24-.75.84-.88,1.38-.31.26.28.52.56.81.88a18.38,18.38,0,0,0,1.9-4.66c1.95-7.94.18-14.94-5.54-20.8a19.69,19.69,0,0,0-12.72-6c-9.23-.77-16.46,2.8-21,10.87A21.34,21.34,0,0,0,37.2,45.64a2.3,2.3,0,0,1,3.09.64c.17.18.34.35.49.54a1.61,1.61,0,0,1-.53,2.69A34.79,34.79,0,0,1,35,51.44,25.55,25.55,0,0,1,11.84,46.3a25,25,0,0,1-9-14.93A26,26,0,0,1,14.48,4,25.23,25.23,0,0,1,30,.06,25.48,25.48,0,0,1,49.16,10,25.15,25.15,0,0,1,54.57,23.9a26,26,0,0,1-3.79,15.95Z"/><path class="cls-1" d="M30.69,16.82c0,1.73,0,3.45,0,5.18a.91.91,0,0,0,.32.62A4.27,4.27,0,0,1,32.38,28a.64.64,0,0,0,.1.75q2.61,3.73,5.2,7.46a2.16,2.16,0,0,1-.37,3.07,2.12,2.12,0,0,1-3.08-.52c-1-1.41-2-2.85-3-4.28-.85-1.21-1.68-2.44-2.55-3.64a1.06,1.06,0,0,0-.66-.39,4.36,4.36,0,0,1-3.72-3.21A4.28,4.28,0,0,1,26,22.64a.84.84,0,0,0,.42-.8q0-5.15,0-10.3a2,2,0,0,1,1.16-1.91,2,2,0,0,1,2.14.1,2.14,2.14,0,0,1,1,1.9Q30.69,14.23,30.69,16.82Z"/></svg>