<?xml version="1.0" encoding="utf-8"?>
<!-- Generator: Adobe Illustrator 16.0.0, SVG Export Plug-In . SVG Version: 6.00 Build 0)  -->
<!DOCTYPE svg PUBLIC "-//W3C//DTD SVG 1.1//EN" "http://www.w3.org/Graphics/SVG/1.1/DTD/svg11.dtd">
<svg version="1.1" id="Layer_1" xmlns="http://www.w3.org/2000/svg" xmlns:xlink="http://www.w3.org/1999/xlink" x="0px" y="0px"
	 width="53.498px" height="110.944px" viewBox="0 0 53.498 110.944" enable-background="new 0 0 53.498 110.944"
	 xml:space="preserve">
<g>
	<g>
		<linearGradient id="SVGID_1_" gradientUnits="userSpaceOnUse" x1="3.751" y1="69.5576" x2="3.751" y2="101.4576">
			<stop  offset="0" style="stop-color:#00ADEE"/>
			<stop  offset="0.0347" style="stop-color:#00ABEB"/>
			<stop  offset="0.4" style="stop-color:#0094CC"/>
			<stop  offset="0.7116" style="stop-color:#0087BA"/>
			<stop  offset="0.931" style="stop-color:#0082B3"/>
		</linearGradient>
		<path fill="url(#SVGID_1_)" d="M5.045,93.546c-0.131-0.396-0.22-0.639-0.22-1.895v-2.423c0-1.431-0.481-1.96-1.578-1.96H2.413
			v6.277H0V78.128h3.642c2.5,0,3.575,1.167,3.575,3.546v1.211c0,1.587-0.505,2.621-1.579,3.128c1.206,0.507,1.601,1.675,1.601,3.283
			v2.378c0,0.749,0.021,1.3,0.263,1.872H5.045z M2.413,80.331v4.735h0.942c0.9,0,1.448-0.396,1.448-1.631v-1.52
			c0-1.102-0.373-1.585-1.228-1.585H2.413z"/>
		<linearGradient id="SVGID_2_" gradientUnits="userSpaceOnUse" x1="13.8311" y1="69.5586" x2="13.8311" y2="101.4579">
			<stop  offset="0" style="stop-color:#00ADEE"/>
			<stop  offset="0.0347" style="stop-color:#00ABEB"/>
			<stop  offset="0.4" style="stop-color:#0094CC"/>
			<stop  offset="0.7116" style="stop-color:#0087BA"/>
			<stop  offset="0.931" style="stop-color:#0082B3"/>
		</linearGradient>
		<path fill="url(#SVGID_2_)" d="M18.053,93.546h-2.436l-0.415-2.798H12.24l-0.417,2.798H9.608l2.456-15.418h3.531L18.053,93.546z
			 M16.407,74.868l-2.236,2.445h-1.624l1.492-2.445H16.407z M12.547,88.656h2.325l-1.162-7.797L12.547,88.656z"/>
		<linearGradient id="SVGID_3_" gradientUnits="userSpaceOnUse" x1="24.1729" y1="69.5576" x2="24.1728" y2="101.4576">
			<stop  offset="0" style="stop-color:#00ADEE"/>
			<stop  offset="0.0347" style="stop-color:#00ABEB"/>
			<stop  offset="0.4" style="stop-color:#0094CC"/>
			<stop  offset="0.7116" style="stop-color:#0087BA"/>
			<stop  offset="0.931" style="stop-color:#0082B3"/>
		</linearGradient>
		<path fill="url(#SVGID_3_)" d="M27.748,81.938v2.005c0,2.467-1.186,3.811-3.598,3.811H23.01v5.793h-2.413V78.128h3.554
			C26.563,78.128,27.748,79.471,27.748,81.938z M23.01,80.331v5.22h1.141c0.768,0,1.185-0.353,1.185-1.454v-2.313
			c0-1.102-0.417-1.453-1.185-1.453H23.01z"/>
		<linearGradient id="SVGID_4_" gradientUnits="userSpaceOnUse" x1="31.6084" y1="69.5576" x2="31.6084" y2="101.4576">
			<stop  offset="0" style="stop-color:#00ADEE"/>
			<stop  offset="0.0347" style="stop-color:#00ABEB"/>
			<stop  offset="0.4" style="stop-color:#0094CC"/>
			<stop  offset="0.7116" style="stop-color:#0087BA"/>
			<stop  offset="0.931" style="stop-color:#0082B3"/>
		</linearGradient>
		<path fill="url(#SVGID_4_)" d="M30.402,78.128h2.413v15.418h-2.413V78.128z"/>
		<linearGradient id="SVGID_5_" gradientUnits="userSpaceOnUse" x1="39.7012" y1="69.5576" x2="39.7012" y2="101.4576">
			<stop  offset="0" style="stop-color:#00ADEE"/>
			<stop  offset="0.0347" style="stop-color:#00ABEB"/>
			<stop  offset="0.4" style="stop-color:#0094CC"/>
			<stop  offset="0.7116" style="stop-color:#0087BA"/>
			<stop  offset="0.931" style="stop-color:#0082B3"/>
		</linearGradient>
		<path fill="url(#SVGID_5_)" d="M35.994,78.128h3.817c2.412,0,3.597,1.343,3.597,3.81v7.798c0,2.467-1.185,3.811-3.597,3.811
			h-3.817V78.128z M38.407,80.331v11.012h1.36c0.768,0,1.228-0.396,1.228-1.498v-8.017c0-1.102-0.46-1.497-1.228-1.497H38.407z"/>
		<linearGradient id="SVGID_7_" gradientUnits="userSpaceOnUse" x1="49.835" y1="69.5576" x2="49.835" y2="101.4573">
			<stop  offset="0" style="stop-color:#00ADEE"/>
			<stop  offset="0.0347" style="stop-color:#00ABEB"/>
			<stop  offset="0.4" style="stop-color:#0094CC"/>
			<stop  offset="0.7116" style="stop-color:#0087BA"/>
			<stop  offset="0.931" style="stop-color:#0082B3"/>
		</linearGradient>
		<path fill="url(#SVGID_7_)" d="M46.173,81.828c0-2.467,1.294-3.877,3.663-3.877c2.368,0,3.662,1.41,3.662,3.877v8.017
			c0,2.469-1.294,3.878-3.662,3.878c-2.369,0-3.663-1.409-3.663-3.878V81.828z M48.586,90c0,1.101,0.482,1.52,1.25,1.52
			s1.25-0.419,1.25-1.52v-8.326c0-1.102-0.482-1.52-1.25-1.52s-1.25,0.418-1.25,1.52V90z"/>
	</g>
	<g>
		<linearGradient id="SVGID_8_" gradientUnits="userSpaceOnUse" x1="0.5889" y1="26.7871" x2="52.9092" y2="26.7871">
			<stop  offset="0" style="stop-color:#00ADEE"/>
			<stop  offset="0.0347" style="stop-color:#00ABEB"/>
			<stop  offset="0.4" style="stop-color:#0094CC"/>
			<stop  offset="0.7116" style="stop-color:#0087BA"/>
			<stop  offset="0.931" style="stop-color:#0082B3"/>
		</linearGradient>
		<path fill="url(#SVGID_8_)" d="M48.857,40.783c0.233,0.255,0.47,0.509,0.701,0.767c0.589,0.655,0.406,1.238-0.461,1.434
			c-1.938,0.435-3.877,0.857-5.815,1.285c-0.425,0.095-0.848,0.201-1.274,0.286c-0.785,0.157-1.214-0.284-0.979-1.036
			c0.73-2.344,1.472-4.684,2.222-7.021c0.242-0.754,0.838-0.882,1.385-0.313c0.265,0.275,0.518,0.563,0.807,0.88
			c0.847-1.5,1.499-3.038,1.897-4.663c1.95-7.94,0.179-14.937-5.543-20.804c-3.467-3.555-7.766-5.633-12.719-6.048
			c-9.229-0.774-16.46,2.803-20.982,10.866c-7.06,12.589,0.09,28.126,14.063,31.209c4.57,1.009,9.005,0.528,13.29-1.35
			c1.317-0.577,2.097-0.418,3.088,0.636c0.167,0.178,0.336,0.354,0.494,0.541c0.815,0.963,0.621,2.199-0.534,2.688
			c-1.712,0.723-3.431,1.506-5.225,1.941c-8.545,2.073-16.339,0.397-23.183-5.145C5.314,43.07,2.319,38.032,1.119,32
			C-1.03,21.198,3.46,10.619,12.726,4.679c4.721-3.027,9.942-4.336,15.534-3.985c7.84,0.492,14.256,3.816,19.14,9.979
			c3.213,4.055,4.999,8.707,5.417,13.864c0.465,5.721-0.819,11.038-3.794,15.947C48.969,40.572,48.922,40.665,48.857,40.783z"/>
		<linearGradient id="SVGID_9_" gradientUnits="userSpaceOnUse" x1="22.4082" y1="25.1973" x2="36.4053" y2="25.1973">
			<stop  offset="0" style="stop-color:#00ADEE"/>
			<stop  offset="0.0347" style="stop-color:#00ABEB"/>
			<stop  offset="0.4" style="stop-color:#0094CC"/>
			<stop  offset="0.7116" style="stop-color:#0087BA"/>
			<stop  offset="0.931" style="stop-color:#0082B3"/>
		</linearGradient>
		<path fill="url(#SVGID_9_)" d="M28.932,17.454c0,1.726-0.011,3.452,0.015,5.178c0.004,0.212,0.152,0.492,0.323,0.621
			c1.739,1.313,2.298,3.437,1.359,5.4c-0.15,0.314-0.066,0.504,0.104,0.748c1.738,2.484,3.474,4.971,5.2,7.463
			c0.751,1.084,0.589,2.338-0.373,3.074c-0.979,0.75-2.311,0.543-3.077-0.523c-1.018-1.415-2.001-2.854-2.998-4.282
			c-0.848-1.215-1.684-2.438-2.554-3.637c-0.14-0.192-0.424-0.361-0.659-0.39c-1.781-0.21-3.255-1.464-3.721-3.215
			c-0.459-1.728,0.203-3.594,1.679-4.61c0.313-0.215,0.42-0.429,0.419-0.801c-0.015-3.435-0.012-6.869-0.005-10.304
			c0.001-0.86,0.398-1.509,1.155-1.906c0.72-0.379,1.452-0.341,2.136,0.101c0.682,0.44,0.995,1.098,0.996,1.904
			C28.933,14.002,28.932,15.728,28.932,17.454z"/>
	</g>
	<linearGradient id="SVGID_10_" gradientUnits="userSpaceOnUse" x1="13.0713" y1="109.9268" x2="40.4277" y2="109.9268">
		<stop  offset="0" style="stop-color:#00ADEE"/>
		<stop  offset="0.0347" style="stop-color:#00ABEB"/>
		<stop  offset="0.4" style="stop-color:#0094CC"/>
		<stop  offset="0.7116" style="stop-color:#0087BA"/>
		<stop  offset="0.931" style="stop-color:#0082B3"/>
	</linearGradient>
	
		<line fill="none" stroke="url(#SVGID_10_)" stroke-width="2" stroke-linecap="round" stroke-miterlimit="10" x1="14.071" y1="109.927" x2="39.428" y2="109.927"/>
</g>
</svg>
