<?xml version="1.0" encoding="utf-8"?>
<!-- Generator: Adobe Illustrator 23.0.5, SVG Export Plug-In . SVG Version: 6.00 Build 0)  -->
<svg version="1.1" id="Layer_1" xmlns="http://www.w3.org/2000/svg" xmlns:xlink="http://www.w3.org/1999/xlink" x="0px" y="0px"
	 viewBox="0 0 230.2 43.5" style="enable-background:new 0 0 230.2 43.5;" xml:space="preserve">
<style type="text/css">
	.st0{fill:#FFFFFF;}
</style>
<path class="st0" d="M197.5,35.1v-0.5c0.4,0.3,0.9,0.5,1.3,0.6c0.5,0.1,1,0.2,1.6,0.2c1.1,0,2.2-0.4,3.1-1.1
	c0.9-0.8,1.5-1.9,1.8-3.1c0.2-0.8,0.4-1.6,0.4-2.5c0.1-1.1,0.2-2.1,0.2-3.2s0-1.9-0.1-2.6c0-0.8-0.1-1.5-0.2-2.3
	c-0.1-1.4-0.7-2.8-1.6-3.8c-0.9-0.8-2.1-1.3-3.3-1.2c-0.7,0-1.5,0.1-2.2,0.3c-0.4,0.1-0.7,0.3-1,0.6V8.6h-4.9v13.9l0,0v12.6
	L197.5,35.1z M197.5,18.9c0.4-0.3,1-0.5,1.5-0.4c0.4,0,0.7,0.1,1,0.4c0.3,0.4,0.5,0.8,0.5,1.3c0.1,0.6,0.1,1.4,0.2,2.4s0.1,2,0.1,3
	c0,0.7,0,1.5-0.1,2.3s-0.1,1.7-0.2,2.5c0,0.5-0.2,1.1-0.5,1.5c-0.3,0.3-0.8,0.4-1.2,0.4c-0.2,0-0.5,0-0.7-0.1
	c-0.2,0-0.4-0.1-0.6-0.2L197.5,18.9z"/>
<path class="st0" d="M66.6,9.1c-2-0.1-4,0.5-5.5,1.8c-1.3,1.4-2,3.3-1.9,5.2l0,18.9h5.3V21.2h4.2V35h5.3V16.1c0-2.4-0.6-4.2-1.8-5.3
	S69.2,9.1,66.6,9.1z M68.7,17.8h-4.2V15c-0.1-0.8,0.1-1.6,0.4-2.3c0.4-0.5,1-0.7,1.7-0.6c0.6-0.1,1.2,0.2,1.6,0.7
	c0.4,0.7,0.5,1.5,0.5,2.3L68.7,17.8z"/>
<path class="st0" d="M85,15.1c-0.7,0-1.4,0.1-2,0.3c-0.6,0.2-1.1,0.5-1.6,0.8l-0.3-0.9H77V35h5V19.5c0.3-0.2,0.6-0.3,1-0.3
	c0.4-0.1,0.9-0.1,1.3-0.1c0.4,0,0.8,0,1.2,0.1c0.4,0.1,0.8,0.2,1.2,0.4v-4.1c-0.3-0.1-0.5-0.2-0.8-0.3C85.6,15.1,85.3,15.1,85,15.1z
	"/>
<path class="st0" d="M96.1,15.9c-0.4-0.3-0.8-0.5-1.3-0.6c-0.5-0.1-1-0.2-1.5-0.2c-1.1,0-2.2,0.4-3.1,1.1c-0.9,0.8-1.5,1.8-1.8,3
	c-0.2,0.8-0.3,1.6-0.4,2.4c-0.1,1-0.2,2.1-0.2,3.1s0,1.8,0.1,2.6c0,0.7,0.1,1.5,0.2,2.2c0.1,1.4,0.7,2.7,1.6,3.8
	c0.9,0.8,2.1,1.3,3.3,1.2c0.7,0,1.5-0.1,2.2-0.3c0.5-0.1,0.9-0.4,1.2-0.8c0,0.2,0,0.4,0.1,0.5s0,0.3,0,0.4c0.1,0.8-0.2,1.7-0.7,2.3
	c-0.6,0.6-1.4,0.9-2.2,0.8c-0.7,0-1.4-0.1-2.2-0.2c-0.7-0.1-1.3-0.3-1.9-0.5l-0.6,2.7c0.8,0.4,1.6,0.6,2.5,0.8
	c0.9,0.2,1.8,0.2,2.7,0.3c1.8,0.1,3.6-0.4,5.1-1.6c1.3-1.1,2-2.8,1.9-4.5v-19h-4.9V15.9z M96.1,31.4c-0.2,0.1-0.4,0.3-0.6,0.3
	c-0.3,0.1-0.6,0.1-0.8,0.1c-0.4,0-0.7-0.1-1-0.4c-0.3-0.4-0.5-0.8-0.5-1.3c-0.1-0.6-0.1-1.4-0.2-2.4s-0.1-1.9-0.1-3
	c0-0.7,0-1.5,0.1-2.3s0.1-1.7,0.2-2.4c0-0.5,0.2-1.1,0.5-1.5c0.3-0.3,0.8-0.4,1.2-0.4c0.2,0,0.5,0,0.7,0.1c0.2,0,0.4,0.1,0.6,0.2
	L96.1,31.4z"/>
<path class="st0" d="M115.3,30.2h-3.5c0,0.5-0.1,1.1-0.4,1.5c-0.3,0.3-0.7,0.5-1.1,0.5c-0.7,0-1.3-0.5-1.4-1.2
	c-0.3-1.8-0.4-3.7-0.3-5.5h7.2v-2.2c0.1-2.1-0.3-4.2-1.3-6.1c-1-1.4-2.6-2.1-4.3-2c-2-0.1-3.9,0.9-5,2.5c-1.1,1.7-1.7,4.2-1.7,7.5
	s0.5,5.8,1.6,7.5c1,1.7,2.8,2.6,4.7,2.5c1.5,0.1,3-0.3,4.2-1.2C115,33,115.4,31.6,115.3,30.2z M108.9,19c0.3-0.7,1.1-1,1.8-0.7
	c0.4,0.2,0.7,0.5,0.8,0.8c0.2,1.2,0.3,2.3,0.3,3.5h-3.1C108.5,21.4,108.6,20.2,108.9,19z"/>
<path class="st0" d="M122.9,18.6c0.2-0.1,0.5-0.1,0.7-0.2c0.3,0,0.5-0.1,0.8-0.1c0.5,0,0.9,0.1,1.3,0.4c0.3,0.3,0.5,0.8,0.5,1.3v15
	h4.9V19.9c0.1-1.3-0.4-2.6-1.3-3.5c-1-0.9-2.2-1.3-3.5-1.2c-0.7,0-1.4,0.1-2.1,0.3c-0.7,0.2-1.4,0.5-2,0.9l-0.3-0.8h-4v19.6h4.9
	L122.9,18.6z"/>
<path class="st0" d="M142.4,35.9c2.7,0,4.7-0.8,5.9-2.3c1.2-1.8,1.8-4,1.7-6.1V25h-5.5v2.8c0,0.7,0,1.5-0.1,2.2
	c-0.1,0.4-0.3,0.8-0.6,1.1c-0.4,0.3-0.8,0.4-1.3,0.4c-0.7,0.1-1.3-0.2-1.7-0.8c-0.4-0.9-0.6-2-0.5-3V16.4c0-0.7,0-1.5,0.2-2.2
	c0.1-0.5,0.3-0.9,0.7-1.2c0.4-0.3,0.9-0.5,1.4-0.4c0.5,0,1,0.1,1.4,0.4c0.3,0.3,0.5,0.6,0.5,1c0.1,0.7,0.1,1.4,0.1,2.1v2.7h5.5v-2.6
	c0.1-2.1-0.5-4.2-1.7-5.9c-1.2-1.4-3.1-2.1-5.8-2.1c-2.9,0-4.9,0.8-6.1,2.4s-1.8,3.9-1.8,6.8v9.3c-0.1,2.4,0.5,4.7,1.8,6.7
	C137.4,35.1,139.5,35.9,142.4,35.9z"/>
<path class="st0" d="M155.9,24.6c-1.1,0.6-2,1.4-2.7,2.4c-0.8,1.1-1.2,2.5-1.1,3.9c0,0.8,0.2,1.6,0.6,2.3c0.4,0.7,0.9,1.4,1.6,1.8
	c0.7,0.5,1.5,0.7,2.3,0.7c1,0,1.9-0.3,2.6-1c0.5-0.4,0.8-0.9,1.1-1.5c0.1,0.5,0.2,1.2,0.4,2v0.2h4.6v-0.3c-0.2-1.6-0.3-3.2-0.3-4.8
	v-9c0.1-1.7-0.4-3.3-1.4-4.6c-1.1-1.1-2.7-1.7-4.3-1.6c-1.8-0.1-3.6,0.5-4.9,1.7c-1.2,1.4-1.8,3.3-1.7,5.1v0.2l4.8,0.2l0.1-1.4
	c0.1-1.7,0.8-1.9,1.4-1.9c0.4-0.1,0.8,0.1,1,0.5c0.2,0.6,0.3,1.2,0.3,1.9v1.5C158.5,23.3,157.2,23.9,155.9,24.6z M159.9,25.7v5
	c-0.2,0.3-0.5,0.5-0.8,0.8c-0.3,0.2-0.6,0.4-1,0.4c-0.4,0-0.8-0.2-1-0.5c-0.3-0.5-0.4-1-0.4-1.6c0-0.8,0.3-1.6,0.8-2.3
	C158.2,26.7,159,26.1,159.9,25.7L159.9,25.7z"/>
<path class="st0" d="M172.9,19.6c0.3-0.3,0.7-0.5,1.1-0.7c0.3-0.2,0.7-0.3,1.1-0.3c0.3,0,0.7,0.1,0.9,0.4c0.3,0.4,0.4,0.9,0.3,1.4
	v15.1h4.8V19.6c0.3-0.3,0.7-0.5,1.1-0.7c0.9-0.4,1.6-0.4,2,0.1c0.2,0.4,0.3,0.9,0.3,1.4v15.1h4.9V19.9c0.1-1.3-0.3-2.5-1.1-3.6
	c-0.7-0.8-1.7-1.3-2.8-1.3c-1.9,0-3.6,0.8-4.9,2.2c-0.2-0.6-0.7-1.1-1.2-1.5c-0.6-0.4-1.4-0.7-2.2-0.6c-1.6,0-3.2,0.6-4.4,1.8v-1.4
	H168v20h4.9L172.9,19.6z"/>
<rect x="208.5" y="15.4" class="st0" width="5.1" height="20"/>
<rect x="208.5" y="8.4" class="st0" width="5.1" height="4.3"/>
<path class="st0" d="M223.3,35.6c2,0.1,3.9-0.8,5.1-2.5c1.1-1.6,1.7-4.3,1.7-7.9s-0.5-6-1.6-7.8c-2.2-2.8-6.3-3.4-9.2-1.1
	c-0.4,0.3-0.8,0.7-1.1,1.1c-1.1,1.7-1.6,4.3-1.6,7.8s0.6,6,1.7,7.7C219.3,34.8,221.3,35.8,223.3,35.6z M222,19.4
	c0.2-0.8,0.6-1.2,1.3-1.2s1.1,0.4,1.3,1.2c0.2,2,0.3,4,0.2,6c0.1,2,0,4-0.3,5.9c-0.2,0.8-0.6,1.3-1.2,1.3s-1.1-0.4-1.2-1.2
	c-0.3-2-0.3-3.9-0.3-5.9C221.7,23.4,221.8,21.4,222,19.4z"/>
<polygon class="st0" points="35.1,31.2 20.6,31.2 18.2,15.8 12.5,15.8 16.1,34.8 38.9,34.9 42.5,15.8 37.5,15.8 "/>
<polygon class="st0" points="0,15.5 10.1,15.5 27.9,5.9 45.5,15.5 55,15.5 27.5,0 "/>
<path class="st0" d="M28.8,24c-0.4,0.2-1,0.4-1.5,0.3c-0.6,0-1.2-0.1-1.7-0.4c-0.6-0.3-1.1-0.7-1.5-1.2l-2.2,1.4
	c0.6,0.6,1.3,1.1,2.1,1.5c0.8,0.4,1.6,0.7,2.5,0.7v1.2h2.1v-1.2c1.2-0.1,2.4-0.5,3.4-1.2c0.7-0.6,1.1-1.5,1.1-2.5
	c0-0.7-0.3-1.5-0.8-2c-0.9-0.8-1.9-1.5-3-2.1l-1.5-0.8l-0.6-0.3c-0.4-0.2-0.7-0.5-1-0.8c-0.2-0.2-0.3-0.5-0.3-0.7
	c0-0.4,0.2-0.8,0.5-1c0.4-0.3,0.8-0.4,1.3-0.4c0.3,0,0.7,0,1,0.1c0.3,0.1,0.5,0.2,0.7,0.4c0.2,0.2,0.3,0.4,0.4,0.6
	c0.1,0.2,0.2,0.5,0.3,0.7l3-0.6c-0.2-0.9-0.7-1.7-1.5-2.3c-0.9-0.6-2-1-3.1-1.1v-0.8h-2.2v0.9c-1.1,0.2-2.1,0.6-3,1.3
	c-0.7,0.5-1,1.4-1,2.2c0,0.6,0.2,1.1,0.5,1.6c0.4,0.6,0.9,1.1,1.5,1.5c0.2,0.2,0.5,0.4,0.9,0.6s0.8,0.5,1.4,0.8
	c0.8,0.4,1.5,0.9,2.2,1.5c0.3,0.2,0.5,0.6,0.6,1C29.3,23.4,29.1,23.8,28.8,24z"/>
<path class="st0" d="M226.8,40.1l-115,3.4h112.5c2.7,0.2,3.5-0.5,3.5-0.5l2.3-1.5C230.9,39.8,226.8,40.1,226.8,40.1z"/>
</svg>
